<svg xmlns="http://www.w3.org/2000/svg" viewBox="254 295 1493 1417" fill="currentColor" role="img" aria-label="Llama transmitiendo en vivo con micrófono, cámara y laptop">
<path fill-rule="evenodd" d="M 1105.5 316.8 C 1099.5 320.7, 1096 326.9, 1096 333.9 C 1096 340, 1102.1 362.6, 1108.9 381.4 C 1112.3 390.7, 1115 398.7, 1115 399.2 C 1115 399.6, 1112.5 401.2, 1109.5 402.7 L 1104 405.4 1099.5 403.2 C 1083.7 395.6, 1063.3 400.1, 1054.8 413.1 C 1053.1 415.8, 1051.5 418, 1051.2 418 C 1051 418, 1048 415.8, 1044.6 413.2 C 1041.3 410.5, 1030.9 403.3, 1021.6 397.1 C 1000.2 382.9, 989.6 374.6, 983.4 367.3 C 964.5 344.8, 958.5 340, 949.8 340 C 941.9 340, 937.7 346.2, 936.3 359.7 C 935.3 368.8, 940.2 392.8, 946 407.8 C 949.2 416.2, 965.2 441.5, 968.4 443.3 C 969.5 443.9, 973.4 447.5, 976.9 451.2 L 983.3 458 979.7 461.9 C 971.1 471.4, 968.5 482.8, 972.2 494.8 C 973.1 497.9, 972.9 498.4, 968.1 503.5 C 958.4 513.7, 955.2 528.3, 960.2 539.1 C 965.1 549.8, 976.2 559, 985.8 560.6 C 990.6 561.4, 990.5 560.9, 988.4 567.5 C 987.4 570.8, 987 575.7, 987.1 581.6 C 987.3 589.8, 987.1 591, 985 594.1 C 980.1 601, 972.4 610.7, 964.8 619.7 C 960.5 624.7, 955.7 631.5, 954.2 634.7 L 951.5 640.5 951.5 668.5 C 951.5 696.1, 951.5 696.6, 953.9 701 C 959.6 711.7, 964 714.9, 974.4 715.9 L 980.4 716.5 981.6 722 C 984.3 734, 998.1 741.6, 1017 741.4 C 1032.5 741.3, 1040.1 738.3, 1055.2 726.3 C 1059.6 722.9, 1063.7 720, 1064.4 720 C 1065.3 720, 1066.1 723, 1066.9 728.6 C 1068.4 739.1, 1070.9 746, 1075.1 751.3 C 1078.1 755, 1078.2 755.5, 1077 758.4 C 1072.4 769.6, 1071.8 772.5, 1072.3 781 C 1072.8 790.6, 1075.4 798.8, 1079.9 805.5 C 1083.6 811.1, 1083.7 811.9, 1080.5 816.6 C 1072.6 828.2, 1073.3 844.7, 1082 857.8 C 1084.2 861.1, 1086 864.3, 1086 864.9 C 1086 865.5, 1084.4 868.4, 1082.5 871.3 C 1072.6 886.3, 1071.9 899.6, 1080.4 918.8 C 1087.6 935.1, 1089.4 940.2, 1089.8 945.7 C 1090.4 952.7, 1092 952.5, 1092 945.5 C 1092 940.9, 1092.4 939.6, 1095 936.7 C 1098.9 932.2, 1098.9 932.1, 1093.5 921.5 C 1083 900.5, 1083.6 889.7, 1096.5 873.6 C 1099.5 869.8, 1102 866.2, 1102 865.5 C 1102 864.9, 1099.5 861, 1096.4 856.9 C 1084.4 841.2, 1083.9 832.8, 1094 819.5 C 1096.8 816, 1099 812.5, 1099 811.8 C 1099 811.2, 1097 808, 1094.5 804.8 C 1081.9 788.8, 1080.9 773.6, 1091.5 760.5 C 1096.9 754, 1097 752.8, 1092.8 749.9 C 1081.5 742.2, 1077.4 732.7, 1079.7 720 L 1080.6 715.5 1093.5 714.7 C 1115.6 713.5, 1128.9 709, 1138.5 699.7 C 1144.2 694.2, 1144.3 694.2, 1149.4 694.7 C 1156.8 695.4, 1157.8 694.3, 1158.9 683.8 C 1159.9 673.1, 1161.4 670.7, 1168.2 668.2 C 1175.6 665.4, 1175.9 664.6, 1172.7 655.1 C 1166.9 637.8, 1171.1 625, 1182.7 625 C 1186.2 625, 1190 622.5, 1190 620.2 C 1190 619.3, 1188.9 615, 1187.5 610.7 C 1186.1 606.4, 1185 601.5, 1185 599.7 C 1185 595.2, 1188.9 587.5, 1194.5 580.8 C 1198.1 576.3, 1199 574.7, 1198.1 573.7 C 1197.5 572.9, 1195.2 567, 1193 560.5 C 1186.5 541.8, 1181.6 533.9, 1173.9 530 C 1171.5 528.7, 1170 527.3, 1170 526.1 C 1170 522.3, 1167.3 521.6, 1163.9 524.5 C 1158.3 529.1, 1151.5 532, 1146 532 C 1140.3 532, 1138.1 531.1, 1133.2 526.9 C 1128.8 523, 1125.4 523.1, 1123.2 527.2 C 1115.5 541.5, 1104.8 544.8, 1095 535.6 C 1092.3 533.1, 1089.7 531, 1089.2 531 C 1087.6 531, 1085.2 534.4, 1082.1 541.5 C 1078.7 548.9, 1075.2 553.3, 1070.8 555.6 C 1067.3 557.4, 1058.7 557.4, 1055.1 555.6 C 1051.8 553.8, 1045.7 547.3, 1043.5 543.1 C 1041 538.1, 1037.8 538.9, 1033.6 545.3 C 1025.7 557.7, 1018.6 559.1, 1009.7 549.9 C 1004.6 544.6, 1003.4 544.2, 999 546.5 C 993.2 549.5, 988 549.4, 982 546.3 C 973 541.7, 969 533.4, 971 523.7 C 972.4 516.5, 974.9 512.9, 981.4 508 C 987.7 503.5, 987.8 502.8, 985 494.7 C 981.1 483.8, 982.5 476.8, 989.7 469.7 C 994.4 465.2, 998.2 464, 1007.3 464 C 1014 464, 1014.1 464, 1015.4 460.8 C 1016.2 459, 1017.1 455.7, 1017.4 453.4 C 1017.8 451.2, 1019.4 447.1, 1021.1 444.2 C 1026.8 434.1, 1037.4 430.8, 1051.1 434.6 C 1054.3 435.5, 1057.5 436, 1058.3 435.7 C 1059 435.4, 1060.7 432.2, 1061.9 428.4 C 1065.4 417.5, 1069.8 413.2, 1079.2 411.5 C 1083.8 410.6, 1093.7 413.1, 1099 416.5 C 1104.5 420, 1106.9 419.7, 1111.5 415 C 1113.6 412.8, 1115.9 411, 1116.5 411 C 1117 411, 1120.3 415.9, 1123.7 421.8 C 1140.1 450.5, 1152.3 470.7, 1154.6 473 L 1157.1 475.5 1159.1 473.1 C 1163 468.4, 1161.2 463.7, 1145.5 437.9 C 1135.5 421.6, 1132.7 415.4, 1123.5 388 C 1120 377.8, 1115.1 363.5, 1112.6 356.2 C 1105.6 336, 1106.3 327, 1115 327 C 1120.2 327, 1122 327.9, 1139.9 338.9 C 1156.2 348.8, 1160.5 352.6, 1170 365.2 C 1184.2 383.9, 1195 409.1, 1195.4 424 C 1195.5 427, 1196 430.4, 1196.7 431.5 C 1197.8 433.6, 1199.4 444.8, 1200.5 457.9 C 1200.9 462, 1200.6 474.3, 1199.9 485.2 L 1198.6 505.1 1201.3 507.7 C 1203.8 510.2, 1204 510.3, 1205.8 508.7 C 1210.2 504.7, 1212.6 482.7, 1211.7 453.4 L 1211.2 434.3 1215.3 435.3 C 1224.1 437.5, 1231 448.3, 1231 459.6 C 1231 468.1, 1232 469.6, 1238.2 470.4 C 1247.2 471.6, 1251.3 473.3, 1255.6 477.5 C 1261.1 483, 1262.4 488.2, 1261.8 501.5 C 1261.2 512.5, 1262.2 516, 1265.8 516 C 1269 516.1, 1275.9 519.8, 1280.3 523.9 C 1289.3 532.2, 1292.1 545.7, 1288 561.1 C 1283.8 576.6, 1283.7 575.9, 1292.1 581.6 C 1305.3 590.6, 1310.9 602.2, 1309.7 618.8 C 1309.3 623.6, 1308.4 629.8, 1307.5 632.5 C 1305.2 640.2, 1305.4 640.6, 1314.9 649.8 C 1333.1 667.7, 1336.9 685.5, 1327.4 709.1 C 1325.5 713.9, 1324 718.3, 1324 718.9 C 1324 719.6, 1327.1 723.2, 1330.8 726.8 C 1339.1 734.9, 1341 739.5, 1341 751.4 C 1341 760.6, 1340.2 764.3, 1335.8 775.3 L 1332.6 783 1340.3 790.3 C 1344.8 794.6, 1348.8 799.5, 1349.9 802.1 C 1352.7 808.1, 1352.7 819, 1349.9 827 C 1346.9 835.7, 1347.4 837.5, 1354.5 843 C 1364.7 850.9, 1367 855.9, 1367 870.1 C 1367 880.5, 1367.5 881.1, 1376.6 882.1 C 1387.7 883.2, 1391 887.5, 1392.9 903 C 1394.3 913.7, 1394.7 914, 1406.5 914 C 1418.2 914, 1424.4 915.9, 1430.4 921.1 C 1437.1 927, 1439.4 932.3, 1441.5 946.7 C 1442.3 952.1, 1443.1 952.6, 1451.7 953.3 C 1467.7 954.6, 1475 964.4, 1475 984.4 C 1475 989.4, 1474.5 995.5, 1473.9 997.9 C 1472.6 1003.6, 1473.8 1005.4, 1483.5 1012.5 C 1495 1021.1, 1498.7 1027, 1499.7 1038.9 C 1500.1 1043.9, 1499.7 1047.4, 1498.1 1053.3 C 1495.2 1063.8, 1495.3 1064.1, 1501.1 1068.8 C 1507.3 1073.8, 1512.2 1079.8, 1511.8 1081.9 C 1511.5 1083.6, 1513.5 1083.3, 1455 1089.4 C 1373.5 1097.8, 1371.7 1098, 1367.4 1100.5 C 1360.3 1104.6, 1358.9 1109, 1351 1149.5 C 1341 1200.9, 1337 1219.3, 1335.6 1220.7 C 1332.2 1224.3, 1311.9 1224.8, 1302.6 1221.5 C 1297.9 1219.9, 1297.6 1219.9, 1292.6 1222 C 1280.7 1227.1, 1266.6 1225.5, 1257 1217.9 C 1251.2 1213.3, 1250.1 1213.2, 1244.4 1216.5 C 1235.8 1221.5, 1227.4 1221.4, 1219 1216 C 1214.6 1213.2, 1214.3 1213.1, 1210.5 1214.5 C 1200.7 1218, 1191.1 1215.1, 1184.8 1206.8 C 1182.3 1203.5, 1181.7 1203.2, 1175.6 1202.8 C 1170.5 1202.5, 1168.5 1201.9, 1166.6 1200.1 C 1164.3 1197.9, 1163.9 1197.8, 1161.8 1199.2 C 1152.6 1205.2, 1157.7 1215, 1170.4 1215.8 C 1175.6 1216.2, 1177 1216.7, 1180 1219.5 C 1187.4 1226.5, 1197.9 1229.8, 1206.8 1227.9 C 1212 1226.9, 1212.6 1227, 1217.9 1229.7 C 1225.5 1233.5, 1236.8 1233.7, 1244.8 1230.1 L 1250.1 1227.7 1252.8 1229.7 C 1263.8 1237.9, 1278.3 1240.1, 1291.5 1235.6 C 1296.8 1233.8, 1299 1233.4, 1301 1234.2 C 1302.4 1234.7, 1310.2 1235, 1318.5 1234.8 C 1331.8 1234.6, 1333.5 1234.7, 1333.8 1236.2 C 1334 1237.1, 1333.7 1238, 1333.3 1238.3 C 1331.9 1239.2, 1184.5 1260, 1179.8 1260 C 1175 1260, 1173 1263.1, 1173 1270.3 C 1173 1279.2, 1174.5 1283.7, 1178 1285.5 C 1179.7 1286.4, 1190.1 1290.4, 1201.2 1294.5 C 1230.7 1305.3, 1236.4 1307.6, 1236.7 1308.7 C 1236.9 1309.3, 1234.5 1310.4, 1231.3 1311.1 C 1226.1 1312.4, 1225.5 1312.8, 1225.2 1315.3 C 1225 1316.8, 1224.1 1318.4, 1223.1 1318.9 C 1219.3 1321, 1202.6 1323.2, 1187 1323.7 C 1138.9 1325.3, 1114 1309.7, 1114 1278 C 1114 1264.6, 1118.9 1250.7, 1129.8 1232.8 C 1133.6 1226.6, 1142.8 1211.6, 1150.2 1199.5 C 1187 1139.5, 1196.2 1111.8, 1194.7 1064.1 C 1194.1 1043.4, 1192 1034.5, 1184.2 1019.5 C 1174.3 1000.7, 1159.7 990.1, 1137.5 985.5 C 1132.6 984.5, 1128.7 983.1, 1127.3 981.8 C 1125.6 980.2, 1124.4 979.9, 1121.1 980.5 C 1117.4 981.1, 1117 981, 1115.5 978.1 C 1113.6 974.3, 1112.6 974, 1095.5 973.7 L 1081.5 973.5 1080.9 955.5 C 1080.4 939.8, 1080 936.3, 1077.6 928.5 C 1074.3 917.6, 1070.9 910.2, 1067.6 907.1 C 1065.3 904.9, 1065.2 904.6, 1065.7 892.6 C 1066.6 873.9, 1062.1 858.4, 1052.8 847.3 C 1022.9 811.8, 972.3 811.2, 945.4 846.1 L 940.9 852 932.3 852 C 922.8 852, 917 854.3, 913.6 859.4 C 912.7 860.8, 910.7 862.3, 909.2 862.6 C 900.5 864.7, 894.6 870.4, 888.5 882.4 C 881.1 897.1, 877.5 899.6, 859.5 902.5 C 844.6 904.9, 839.4 908.6, 833.9 920.6 C 832.4 923.9, 830.6 929.5, 829.9 933.1 C 828.3 941.2, 828.3 985.2, 829.9 1012 C 832.7 1059.4, 833.1 1059.8, 873.8 1060.9 L 897.2 1061.5 898.8 1066.5 C 900.9 1072.7, 903.4 1074.2, 917.6 1077.8 L 928.5 1080.6 928.2 1083.5 C 927.9 1086.5, 924 1091, 921.6 1091 C 919.7 1091, 916.3 1095, 914.4 1099.5 C 913 1102.7, 912.5 1107.8, 912.1 1123.9 L 911.5 1144.2 907.9 1147.4 C 902.6 1151.9, 902 1153.7, 902 1165.5 L 902 1176.2 895.4 1185.3 C 883.9 1201.5, 862.2 1232.9, 848.4 1253.5 C 841 1264.5, 832.3 1277.4, 828.9 1282.1 C 822.7 1290.8, 821 1295.9, 822.4 1301.4 C 823.9 1307.3, 836 1310.1, 842.6 1306.1 C 847 1303.4, 854.9 1293.2, 868.8 1272.3 C 878.4 1258, 911 1210.8, 912.6 1209.1 C 912.8 1208.8, 914.8 1209.6, 916.9 1210.8 C 919.5 1212.3, 923.4 1213.2, 928.5 1213.7 C 935 1214.2, 936.3 1214.6, 937.1 1216.4 C 937.6 1217.6, 940.5 1229.5, 943.5 1243 C 946.6 1256.5, 950.5 1273.1, 952.1 1280 C 953.8 1286.9, 956.7 1299.1, 958.5 1307.2 C 962.2 1323.4, 965.1 1330.2, 970.4 1334.7 C 976.7 1340.3, 985.8 1340, 991.4 1334.1 C 997.1 1328.1, 996.8 1321.5, 989.5 1294 C 987.1 1284.9, 981.1 1261.5, 976.1 1242 C 971.2 1222.5, 966.9 1205.7, 966.5 1204.8 C 964.4 1199.6, 968.8 1204.6, 977.4 1217.3 C 982.7 1225.1, 990.5 1236.2, 994.6 1242 C 998.8 1247.8, 1005.1 1257, 1008.7 1262.5 C 1029.4 1294.2, 1038.8 1302.9, 1049 1300 C 1054.2 1298.5, 1057 1295.3, 1057 1290.8 C 1057 1285.8, 1056.8 1285.4, 1044 1267.5 C 1027.6 1244.5, 1016.9 1228.2, 1017.9 1227.6 C 1018.3 1227.3, 1020.7 1227.4, 1023 1227.8 C 1026.8 1228.4, 1027.5 1228.9, 1028.2 1231.7 C 1030.1 1239, 1042.1 1241.7, 1059.8 1238.6 C 1073 1236.3, 1087.6 1228.8, 1103.4 1216.1 C 1107.3 1213, 1114.8 1208.3, 1120 1205.5 C 1133 1198.6, 1139.6 1189, 1131.3 1189 C 1126.8 1189, 1118.8 1193.3, 1104.4 1203.6 C 1096.9 1208.9, 1090.5 1212.8, 1090.1 1212.4 C 1089.7 1211.9, 1088.5 1209.4, 1087.6 1206.7 C 1084.6 1198.7, 1078.3 1190.4, 1071.4 1185.2 C 1067.9 1182.6, 1065 1180, 1065 1179.4 C 1065 1175.6, 1117.8 1155.6, 1131.2 1154.3 C 1139.8 1153.5, 1142.2 1154.3, 1147.5 1159.1 C 1149.9 1161.3, 1152.4 1162.9, 1153 1162.5 C 1155.5 1160.9, 1159.1 1151.8, 1158.8 1147.7 L 1158.5 1143.5 1152.4 1142.9 C 1149.1 1142.6, 1145.7 1142, 1145 1141.5 C 1144.2 1141, 1140.6 1140.4, 1137 1140.1 C 1130.6 1139.5, 1130.5 1139.4, 1130.7 1136.7 C 1131 1132.1, 1134.6 1128.2, 1139.8 1126.7 C 1143.2 1125.7, 1145 1124.4, 1146.5 1122.1 C 1153.6 1110.8, 1154.7 1109.4, 1159 1107.3 C 1162.1 1105.7, 1165.2 1105, 1169.2 1105 C 1174.6 1105, 1175.1 1104.8, 1176 1102.4 C 1178.8 1095.2, 1176.1 1092.7, 1165.4 1092.7 C 1154.4 1092.7, 1146.9 1097.6, 1139.4 1109.6 C 1136.9 1113.7, 1134.5 1117, 1134.1 1117 C 1133.7 1117, 1131.2 1118.4, 1128.5 1120.2 C 1123.1 1123.8, 1119.6 1130, 1118.5 1138.3 C 1117.6 1143.9, 1118.2 1143.5, 1102.5 1149 C 1085.1 1155.1, 1057.6 1166.6, 1049.5 1171.2 C 1044.3 1174.2, 1041.9 1175, 1040 1174.5 C 1038.6 1174.1, 1032.6 1173.4, 1026.5 1172.9 C 1014.1 1171.9, 1010 1170.8, 1007.4 1167.9 C 1005.7 1166, 1005.8 1165.8, 1010.9 1160.6 C 1017.3 1154.1, 1017.3 1152.1, 1010.6 1145.6 C 1005.7 1140.9, 1004.4 1136.9, 1005.9 1131.3 C 1007.5 1125.5, 1007.3 1124, 1003.9 1120.9 C 1001.7 1118.8, 1000.5 1116.5, 999.9 1113.2 C 998.8 1107.3, 996.6 1104.3, 990.7 1100.5 C 988.2 1098.8, 986.1 1097, 986.1 1096.5 C 986 1094.9, 1002.3 1082.2, 1007.1 1080 C 1012.3 1077.7, 1016.8 1077.5, 1023.1 1079.4 C 1025.8 1080.2, 1029.6 1080.6, 1031.9 1080.3 C 1035.4 1079.8, 1036.9 1080.3, 1041.9 1083.4 C 1048.2 1087.3, 1049.9 1087.7, 1051.8 1085.8 C 1054 1083.6, 1053 1081.2, 1048.4 1077.1 C 1040.6 1070.3, 1035.6 1069, 1016.6 1069 C 998.5 1069, 999.5 1068.7, 990.5 1077 C 988.3 1079.1, 981.6 1084, 975.7 1088 L 964.9 1095.2 962.2 1092.7 C 960.7 1091.3, 958.3 1089.7, 956.7 1089.1 C 953.9 1088, 951.5 1083.7, 952.4 1081.4 C 952.7 1080.7, 954.6 1079.8, 956.7 1079.5 C 974.9 1076.4, 983 1071.8, 983 1064.6 C 983 1060.2, 978.4 1060.6, 1026 1060.5 C 1066.5 1060.5, 1069.6 1060.1, 1074.2 1055.3 C 1078.8 1050.5, 1079.3 1047.7, 1079.9 1026 L 1080.5 1005.5 1094.5 1004.3 C 1102.2 1003.7, 1109.3 1003.1, 1110.4 1003.1 C 1111.4 1003, 1113.6 1001.5, 1115.4 999.6 C 1117.7 997.1, 1119.6 996.1, 1122.9 995.7 C 1125.6 995.4, 1128 994.4, 1128.9 993.2 C 1130.4 991.3, 1130.9 991.3, 1137 992.6 C 1164.8 998.4, 1181.1 1017.3, 1186.6 1050.1 C 1187.9 1058.2, 1188.1 1063.8, 1187.7 1077.4 C 1186.3 1120, 1175 1146.9, 1127.7 1221.8 C 1110.7 1248.6, 1106 1260.8, 1106 1278.6 C 1106 1305.7, 1124.2 1324.2, 1157 1330.4 C 1172 1333.3, 1202.6 1332, 1220.3 1327.9 C 1224.4 1326.9, 1225.4 1327, 1226.9 1328.4 C 1229.3 1330.6, 1249 1329.8, 1263 1326.9 C 1268.8 1325.8, 1274.8 1324.6, 1276.5 1324.3 C 1278.5 1324, 1284.8 1325.8, 1296 1330 C 1319.5 1338.7, 1312 1338.7, 1374.5 1329.5 C 1391.5 1327, 1445.3 1319.1, 1494 1311.9 C 1586.6 1298.4, 1598.5 1296.5, 1602.4 1295 C 1607.8 1293, 1609.5 1288, 1619.4 1246 C 1623.5 1228.7, 1631.3 1195.8, 1636.8 1173 C 1642.3 1150.2, 1649.4 1120.3, 1652.6 1106.6 L 1658.4 1081.7 1656.4 1078.1 C 1655.3 1076, 1652.7 1073.5, 1650.2 1072.1 C 1646.6 1070.2, 1645.9 1069.4, 1646.4 1067.6 C 1646.7 1066.5, 1648.2 1056.5, 1649.6 1045.5 C 1652 1027.9, 1652.1 1024.4, 1651.2 1016.3 C 1648.8 995.4, 1632.8 976, 1614.3 971.6 C 1602.6 968.9, 1548.2 962.6, 1495 957.9 L 1481.5 956.7 1476 951.5 C 1469.8 945.7, 1466 943.4, 1458.1 941 C 1452.7 939.3, 1452.7 939.3, 1450.6 932.9 C 1444.7 914.7, 1432.6 904.3, 1414.4 901.7 C 1406.3 900.6, 1405.5 900.2, 1404.8 898 C 1401.2 884.9, 1400.8 883.9, 1395.9 878.6 C 1392.6 874.9, 1389.4 872.6, 1386.2 871.4 C 1379.5 868.9, 1379.3 868.7, 1378.8 861.5 C 1378.1 852.8, 1374.2 845.2, 1366.9 837.9 C 1361.6 832.6, 1361.1 831.8, 1362 829.5 C 1364 824.1, 1364.9 815.1, 1363.9 808.3 C 1362.7 799.8, 1359.5 793.1, 1353.1 785.9 L 1348.1 780.3 1350.5 772.7 C 1356.7 753.4, 1353.4 732.2, 1342.4 720.1 L 1338.6 715.9 1340.8 709.2 C 1348.9 684.1, 1344 663.2, 1325.5 643.2 L 1319.7 636.9 1321 627 C 1323.9 605.3, 1319.6 591.8, 1305.3 576.8 L 1298.9 570.2 1299.9 566.3 C 1302.3 558.2, 1303 549, 1302 542.2 C 1299.9 528.6, 1290.4 514.1, 1279.6 508 L 1274.6 505.1 1274.5 497.3 C 1274.2 478.9, 1265.4 465.9, 1249.7 461.1 L 1243.5 459.2 1242.7 453 C 1240.8 437.6, 1228.8 425.1, 1213.3 422.5 C 1208.1 421.7, 1208.6 422.5, 1202.9 405.5 C 1193.5 377.3, 1185.6 363.6, 1169.1 347 C 1160.4 338.2, 1156.1 334.8, 1145 328 C 1130.1 318.8, 1123.7 316.2, 1114.6 315.4 C 1109.7 315, 1107.9 315.2, 1105.5 316.8 M 1125.7 347.7 C 1125.3 348, 1129.9 353.3, 1135.8 359.5 C 1153.5 377.7, 1165.4 398.2, 1172.5 422.5 C 1175.4 432.6, 1177.6 455.7, 1177.1 472 C 1176.9 479, 1177.3 482, 1178.3 483.4 C 1179.7 485.3, 1179.7 485.3, 1180.7 483.4 C 1184.3 476.4, 1185.4 441.5, 1182.6 425.1 C 1178.2 399.5, 1156.2 362.9, 1138 350.7 C 1132.9 347.3, 1127.4 345.9, 1125.7 347.7 M 948.6 352.8 C 947.6 354.5, 948.2 376.9, 949.5 382.5 C 951.9 392.6, 955.6 402.3, 959.2 408 C 961.2 411, 964.4 416.8, 966.4 420.8 C 971.1 430.5, 991.1 452.6, 994.8 452.3 C 997.9 452, 1004.1 448.9, 1005.3 447 C 1006.4 445.2, 998.7 433.8, 987.7 420.6 C 983.9 416.2, 978.6 408.7, 975.8 404 C 973 399.3, 968.1 391.9, 965 387.5 C 959.1 379.3, 956.8 375.3, 955.5 371.2 C 954.9 369, 955 368.9, 959.1 369.2 C 963.3 369.5, 963.6 369.7, 967.1 376 C 970.8 382.9, 980.5 396.2, 989.5 407 C 992.5 410.6, 996.4 415.5, 998.2 418 C 1004.5 426.7, 1011.3 435, 1012.1 435 C 1012.6 435, 1013.4 434.1, 1014 432.9 C 1015.4 430.3, 1026.1 423.4, 1030 422.5 C 1037.2 420.9, 1035.3 417.6, 1023.5 411.7 C 1019.6 409.8, 1012.5 405.2, 1007.5 401.5 C 1002.5 397.8, 996 393.1, 993 391 C 989.9 388.9, 980.5 379.9, 972 371 C 956.9 355.2, 950.3 350, 948.6 352.8 M 1163.2 538 C 1154.8 544, 1145.7 545.4, 1136 542 L 1130.6 540.2 1126.8 543.5 C 1118 551.5, 1107 554.3, 1097.2 551.1 L 1092.9 549.6 1088.4 554.8 C 1076.9 568, 1062.8 571.9, 1049 565.9 C 1046.5 564.8, 1043.3 562.7, 1041.8 561.3 L 1039.1 558.7 1035.6 561.8 C 1030.9 565.9, 1026.1 567.3, 1018.2 566.8 C 1014.5 566.5, 1010.9 566.1, 1010.2 565.9 C 1009.2 565.6, 1008.8 567.1, 1008.6 572 C 1008.2 582, 1002.8 592.2, 990.7 606.3 C 987.2 610.2, 981.5 617.3, 978 622 C 974.5 626.7, 970 632.3, 967.9 634.6 C 963.6 639.4, 962.6 642, 963.4 646.3 C 964.1 649.9, 975.5 664.5, 977.6 664.5 C 978.4 664.5, 979.8 662.9, 980.8 661 C 983.1 656.4, 992 649.4, 997.2 648 C 999.6 647.3, 1004.8 645.3, 1008.8 643.4 C 1017.5 639.3, 1018.7 639.2, 1020.2 642.5 C 1021.1 644.6, 1021 645.7, 1019.7 648.5 C 1017.7 652.7, 1013.9 654.8, 1006.3 655.6 C 997.2 656.7, 993.2 659.6, 985.1 671.4 C 981.9 676.1, 981.8 676.5, 982.4 683.1 C 983.1 691.3, 986.2 699.9, 989.4 702.9 C 993.1 706.4, 1002 707.6, 1011.2 705.7 C 1025.1 702.9, 1036 695.8, 1043.4 684.6 C 1047.1 679, 1048.9 677.7, 1050.9 678.9 C 1052.5 679.9, 1049.2 689.4, 1044.9 696.1 C 1036.5 709.2, 1019.9 717, 1000.3 717 C 992 717, 991 717.2, 991 718.8 C 991 723.1, 1000.3 728.4, 1010.7 730 C 1024.3 732.1, 1034.9 728.4, 1051.2 715.7 C 1066 704.3, 1072.4 702, 1091.9 701 C 1114.5 699.8, 1123.2 697.7, 1135 690.5 C 1138.2 688.6, 1141.7 687, 1142.8 687 C 1145.6 687, 1146.6 685.3, 1148 678.5 C 1149.6 670.9, 1151.2 667.8, 1156.6 662 L 1161 657.3 1159.8 650.1 C 1158.9 644.7, 1158.9 641.2, 1159.7 635.3 C 1160.8 627.9, 1161 627.4, 1165.7 623 C 1168.4 620.5, 1171.9 617.6, 1173.5 616.4 C 1176.3 614.4, 1176.4 614.4, 1175 609.7 C 1171.8 598, 1175.8 584.5, 1185.7 574.7 C 1188.6 571.7, 1191 568.6, 1191 567.8 C 1191 566.9, 1189.2 564, 1187.1 561.3 C 1183.2 556.4, 1179 548.1, 1177.6 542.5 C 1176.7 538.9, 1172.3 534, 1170.1 534.1 C 1169.2 534.1, 1166.1 535.9, 1163.2 538 M 1114.2 559.1 C 1108 560.2, 1100.9 563.7, 1095.8 568.3 C 1091.9 571.8, 1088.5 578.3, 1089.6 580.1 C 1090.2 581.1, 1097.3 580.6, 1100.6 579.3 C 1101.7 578.9, 1102 580.2, 1102 585.6 C 1102 597.6, 1106.5 603, 1116.9 603.8 C 1127.3 604.6, 1133 599.4, 1132.8 589.3 C 1132.7 583.7, 1129.5 575.1, 1127 573.5 C 1126.5 573.2, 1126 572.4, 1126 571.9 C 1126 570.7, 1128.6 571.4, 1135 574.2 C 1140.8 576.9, 1148.8 577.1, 1150.3 574.8 C 1152 572.2, 1147.3 567.9, 1137.6 563.1 C 1128.7 558.7, 1122.7 557.7, 1114.2 559.1 M 706.5 601.5 C 688.9 605.4, 671.2 616.5, 652.4 635.4 C 645.2 642.6, 636.5 652.3, 633 657 C 629.6 661.7, 626.2 665.8, 625.6 666.2 C 623.9 667.1, 585.6 678.4, 568.5 683 C 552.9 687.1, 529.7 693.5, 489.9 704.5 L 463.2 711.9 450.4 709.3 C 432.4 705.7, 411.2 705.5, 399.5 708.8 C 383.2 713.5, 370.6 722, 366.1 731.3 C 364.6 734.5, 362.9 736.2, 359.5 737.8 C 348.5 743.2, 344.2 750, 345.5 760.4 C 346.5 768.3, 346.5 772.6, 345.5 788.5 C 343.5 822.1, 353.4 856.3, 375 890.5 C 383.5 903.9, 385.4 908.2, 389 922.5 C 390.8 929.6, 393.4 939.1, 394.8 943.5 C 396.1 947.9, 398.9 957.8, 401 965.5 C 403 973.2, 409.3 996.3, 415 1016.9 L 425.3 1054.3 422 1069.9 C 415.6 1100.4, 414.9 1104.9, 414.3 1125 L 413.8 1144.5 417.5 1160 C 419.5 1168.5, 421.4 1176.7, 421.7 1178.3 C 422.1 1180.6, 421.2 1182.1, 415.9 1187.8 C 412.4 1191.5, 408 1197.3, 406.2 1200.8 C 404.4 1204.2, 402.3 1207, 401.6 1207 C 399.2 1207, 396.8 1210.9, 396.3 1215.4 C 395.8 1219.4, 396.1 1220.2, 398.6 1222.8 C 410.6 1234.8, 457.7 1237.2, 481.4 1227 C 490.6 1223.1, 492.9 1214.3, 486.7 1207.3 C 484.8 1205.2, 481.7 1200.7, 479.6 1197.3 C 475 1189.6, 468.9 1183.2, 463 1179.9 C 459 1177.8, 458.5 1177, 458.2 1173.6 C 457.6 1166.9, 457.9 1166.8, 468.2 1170.2 C 486.1 1176, 497.4 1174.9, 502.7 1166.8 C 507.7 1159.3, 506.7 1153.4, 489.8 1095 C 481.6 1066.9, 476.2 1047.4, 468.4 1018.5 C 466.5 1011.4, 462 995.4, 458.5 983 C 450 952.7, 436 902.5, 431.6 886.5 C 429.7 879.4, 424.5 861.1, 420.2 846 C 415.8 830.9, 411 813.3, 409.5 806.9 L 406.7 795.4 409.5 790.6 C 411 788, 413.2 785.2, 414.4 784.4 C 415.6 783.7, 426.1 780.6, 437.6 777.6 C 449.1 774.6, 469.1 769.1, 482 765.5 C 510.2 757.5, 535.6 750.6, 546.5 747.9 C 550.9 746.8, 563 743.5, 573.5 740.6 C 584 737.6, 598.8 733.5, 606.5 731.5 C 614.2 729.5, 625.7 726.3, 632 724.5 C 638.3 722.7, 652 718.8, 662.5 716 C 673 713.2, 687.8 709, 695.5 706.7 C 705.6 703.7, 711 702.6, 714.8 702.8 C 719.6 703, 721.6 702.3, 737.6 694.5 C 747.2 689.8, 755.5 686, 755.9 686 C 757 686, 760.5 690, 762 692.9 C 763 694.8, 763 696.4, 762 700.6 C 760.8 705.5, 760.9 706, 763 708.9 C 764.2 710.6, 767.3 713.1, 769.8 714.4 C 776.2 717.7, 780.8 722.8, 787.5 734 C 790.7 739.2, 794.1 744.7, 795.1 746.1 C 796.6 748.2, 796.8 749.4, 796 752.1 C 794.2 758.4, 794.9 770.9, 797.4 778.5 L 799.8 785.5 797.7 787.8 C 796.5 789.1, 786.8 797.1, 776.3 805.7 C 749.8 827, 747.4 830.1, 750 840.1 C 757 866.1, 785 889.2, 800.1 881.5 C 803.9 879.5, 818.1 869.5, 825 863.9 C 833 857.5, 855.9 841.1, 864 836 C 868.3 833.4, 876.8 827.1, 882.7 822.1 C 893.1 813.4, 902.5 806, 928.7 785.5 C 935.3 780.3, 942 774.6, 943.4 773 C 955.1 759, 941.6 726.3, 919.6 715.7 C 907.4 709.8, 902.9 711.1, 882 726.2 C 858 743.5, 849.8 749, 847.7 749 C 846.7 749, 844.1 747.5, 841.9 745.7 C 839.8 743.9, 833.8 740.3, 828.6 737.7 C 821.1 734.1, 818.4 732.2, 815.6 728.4 C 813.6 725.8, 812 723.3, 812 722.8 C 812 721.6, 816.6 720, 820.1 720 C 829.7 720, 835.4 711, 831.6 701.8 C 829.2 696.1, 815 673.8, 810.9 669.3 C 808.8 667.1, 805.9 662.8, 804.4 659.8 C 800.3 651.7, 789.4 639, 786.4 639 C 784.6 639, 782.8 637.3, 779 632 C 771.7 622.1, 759.4 611, 750.7 606.6 C 738.3 600.3, 720.8 598.3, 706.5 601.5 M 707.8 608.5 C 694.4 611.9, 671.6 625.5, 661.5 636.2 C 650 648.2, 638.8 661.1, 639.3 661.6 C 639.8 662.2, 655.5 658.3, 685.6 650.3 C 699.6 646.5, 704.5 644.8, 707.1 642.6 C 710.2 640, 710.9 639.8, 717.4 640.2 C 723.4 640.6, 726.7 641.6, 738.5 646.8 C 759.3 656, 761.2 657.1, 763.5 661.8 C 765.8 666.6, 767 667.1, 767 663.3 C 767 658.6, 768.1 656, 770.1 656 C 772.9 656, 774 659.1, 773.8 666.8 C 773.6 678, 779.6 686.9, 785.5 684.2 C 789.1 682.5, 788.8 680.9, 781 665.2 C 773.5 650.1, 773.4 649.4, 775.2 644.4 C 776.2 641.4, 776.1 640.8, 773.5 637.3 C 762.7 623, 751.8 613.9, 740.5 609.9 C 732.8 607.1, 716.1 606.4, 707.8 608.5 M 1229.8 644.8 C 1229.7 645.2, 1229.6 649.6, 1229.6 654.6 C 1229.5 662.9, 1229.3 663.9, 1226.7 667.3 C 1225.1 669.4, 1222.2 671.9, 1220.1 673 C 1215.8 675.1, 1214 678.8, 1214 685.2 C 1214 694.7, 1206.3 702.1, 1195.7 702.8 C 1185.5 703.5, 1182.9 707.7, 1190.6 711.1 C 1198.6 714.7, 1208.7 711.5, 1216.4 702.9 C 1221.8 696.9, 1223.4 692.4, 1222.7 685.9 L 1222.1 681 1226.2 678.9 C 1236.6 673.6, 1241.1 663.2, 1237.5 652.9 C 1235.4 647.1, 1230.5 641.9, 1229.8 644.8 M 710.6 647.3 C 708.2 649.1, 707.4 661, 708.9 675.2 C 711.5 699.5, 713.5 700.6, 734 688.9 C 740.9 685, 747.9 681.3, 749.5 680.8 C 754.8 678.9, 760 673.1, 760 668.9 C 760 663.5, 757.6 661.5, 747 658 C 741.8 656.2, 733.2 652.8, 727.9 650.4 C 718 645.9, 713.6 645.1, 710.6 647.3 M 782.5 648 C 781.5 649.6, 782.7 653.7, 785.7 658.7 C 788.5 663.5, 789.4 663.8, 793 661.1 L 795.4 659.2 790.9 653.3 C 786.4 647.5, 783.8 645.9, 782.5 648 M 694 654.6 C 686.4 656.7, 639.3 670.2, 623 675 C 615.6 677.2, 600.3 681.5, 589 684.5 C 523.5 702.1, 481.9 714.2, 482.3 715.5 C 483.3 718.4, 492.8 717, 516 710.4 C 528.9 706.8, 545.1 702.3, 552 700.5 C 558.9 698.7, 568.8 695.8, 574 694.2 C 582.7 691.4, 592.6 688.7, 628 679.6 C 634.9 677.8, 652.2 672.9, 666.5 668.8 C 680.8 664.6, 694 660.9, 695.8 660.5 C 699.2 659.8, 702.7 655.9, 701.5 654 C 700.8 652.8, 701 652.8, 694 654.6 M 793.3 664 C 789.6 666.2, 789.6 666.3, 791.1 669.3 C 794.4 675.8, 798.4 677.5, 801.6 673.9 C 803.5 671.8, 803.4 671.7, 800.9 667.2 C 797.8 661.7, 797.4 661.5, 793.3 664 M 963.3 667.8 C 962.9 669.3, 962.6 675.9, 962.5 682.5 C 962.5 699.3, 965.5 705, 974.6 705 C 978.7 705, 978.6 705.6, 975.6 694.5 C 974.7 691.3, 974 686.3, 974 683.5 C 974 676.4, 972.5 672.2, 968.8 668.3 C 964.9 664.3, 964.2 664.2, 963.3 667.8 M 695 667.1 C 689.3 669.4, 661.5 677.3, 622.3 687.6 C 616.6 689.1, 615.4 689.9, 608.8 696.8 C 604.8 701.1, 599.3 706.7, 596.7 709.3 C 594 712, 592 714.4, 592.3 714.6 C 592.8 715.1, 595.9 714.3, 650 699.1 C 671.7 693, 692.4 687.3, 696 686.3 L 702.5 684.5 702.8 679.5 C 703.4 668.3, 701.1 664.6, 695 667.1 M 765.7 674.8 C 764 680.6, 764 684.1, 765.6 687.2 C 769.1 694.1, 771.6 695.4, 775.8 692.4 L 778.1 690.8 774 686.4 C 771.6 683.8, 769.5 680.3, 768.8 677.5 C 767.5 672.8, 766.5 671.8, 765.7 674.8 M 801.3 678.6 C 798.9 680, 797 681.6, 797 682.1 C 797 683.7, 798.7 686.6, 807.7 700.8 C 814.5 711.3, 816.7 714, 818.5 714 C 820.9 714, 826 709.9, 826 707.9 C 826 704.2, 809 676, 806.7 676 C 806.1 676, 803.6 677.2, 801.3 678.6 M 695.5 693.1 C 692.2 694.1, 679.6 697.7, 667.5 701.1 C 655.4 704.4, 639.9 708.9, 633 711 C 626.1 713.1, 607.2 718.3, 591 722.4 C 574.8 726.6, 554.8 732, 546.5 734.4 C 532.3 738.6, 514.1 743.5, 458 758.4 C 416.6 769.4, 414.7 770.2, 416.3 774.3 C 416.8 775.7, 417.6 775.6, 423.3 773.9 C 426.9 772.8, 438.9 769.6, 450.1 766.6 C 461.3 763.7, 477.5 759.4, 486 757.1 C 494.5 754.8, 509.1 750.8, 518.5 748.3 C 527.9 745.9, 542.5 741.9, 551 739.5 C 588.3 729, 615 721.7, 634.5 716.5 C 673.2 706.3, 678.4 704.9, 690 701.3 C 706.9 696.1, 706.5 696.4, 704.8 693.8 C 702.8 690.9, 702.4 690.8, 695.5 693.1 M 783.4 694.1 C 781.8 695.8, 778.1 698.6, 775.3 700.2 C 769 703.7, 768.6 704.3, 770 707 C 772 710.8, 780.7 708.6, 786.8 702.8 C 790.4 699.2, 791 695.2, 788.2 692.7 C 786.5 691.1, 786.2 691.2, 783.4 694.1 M 600.8 693.5 C 600.6 693.8, 590.9 696.4, 579.4 699.4 C 567.9 702.5, 550.2 707.4, 540 710.5 C 529.8 713.5, 518 716.8, 513.8 717.7 C 502 720.2, 502.9 720.9, 521 723.6 C 536.6 725.8, 552.9 725.2, 562.5 721.9 C 574.8 717.7, 601.9 699.4, 602.8 694.8 C 603.1 693.1, 602 692.4, 600.8 693.5 M 784.4 711.1 C 782.5 713.2, 782.6 713.3, 785.3 718.2 C 788.9 724.7, 802.7 744.4, 805.1 746.6 C 806.9 748.2, 807.2 748.2, 810.5 744.7 C 812.4 742.7, 814 740.6, 814 740 C 814 738.7, 810.4 733.3, 800.2 719.3 C 793.4 709.9, 792.4 709, 789.5 709 C 787.5 709, 785.6 709.8, 784.4 711.1 M 413 713.7 C 397.1 715.4, 376 724.6, 376 729.8 C 376 730.9, 376.8 731.1, 379.3 730.6 C 381 730.2, 386.3 729.6, 391 729.3 C 398.2 728.8, 444.3 718, 445.9 716.4 C 448 714.4, 424.5 712.4, 413 713.7 M 446.5 723.9 C 437.1 726.6, 424.7 730, 418.7 731.5 C 406 734.8, 403.7 736.1, 406.1 738.5 C 407.6 740, 408.6 739.9, 419.6 737.1 C 426.1 735.4, 436.7 732.5, 443 730.6 C 478.9 719.7, 476.4 720.8, 468 719.7 C 464.5 719.2, 459.9 720.1, 446.5 723.9 M 900.5 722.3 C 897.1 724.2, 857.3 752.7, 854.6 755.1 C 853.8 755.8, 857 760.5, 872.1 780.4 C 879.7 790.4, 880 791.1, 880 797.2 C 880 803.8, 882.6 810.3, 885 809.7 C 888.7 808.7, 933.7 772.7, 937.3 767.8 C 940.8 763, 940.7 755, 937 745.3 C 934.3 738.1, 933 736.3, 926.9 730.6 C 915.6 719.8, 908.6 717.7, 900.5 722.3 M 449 735.3 C 427.8 741.5, 410 746.8, 409.3 747.2 C 407.9 748.2, 411.8 762, 413.6 762.7 C 415 763.2, 438.1 757.3, 467 749 C 478.3 745.8, 496.7 740.8, 508 738 C 528.6 732.8, 529.8 732.5, 528.8 731.4 C 528.1 730.8, 491.3 724, 489.1 724.1 C 488.2 724.1, 470.2 729.2, 449 735.3 M 385.5 737.1 C 373.3 738.9, 356.8 745.8, 352.9 750.8 C 349.9 754.7, 350.4 759.9, 354.4 765.2 C 360 772.5, 377.8 785.7, 388.6 790.7 L 394.1 793.2 398.8 790.8 C 401.5 789.5, 404.7 786.8, 406.3 784.5 C 410.1 779.1, 409.5 772.3, 404 757 C 401.7 750.7, 399.3 743.5, 398.6 741 C 397.2 735.8, 396.1 735.5, 385.5 737.1 M 816.7 747.8 C 815.2 749.3, 814 750.9, 814 751.2 C 814 751.6, 816.8 753.4, 820.3 755.4 C 830.5 761.1, 841.8 772.4, 847.4 782.4 C 850.1 787.1, 852.5 791, 852.9 791 C 853.3 791, 854.1 789.7, 854.7 788.1 C 855.4 786.2, 857.3 784.4, 859.9 783 L 864 780.9 858.2 773.2 C 855 769, 851.4 763.8, 850.1 761.7 C 847.6 757.7, 837.9 750.2, 830.9 747 C 824.5 744.1, 820 744.4, 816.7 747.8 M 802 756.5 C 800 761.7, 801.8 773.5, 805.2 778.3 C 806.5 780, 806.8 780, 810.9 777.8 C 816 775.1, 823.5 766.8, 822.7 764.7 C 822.1 763, 809.4 755.4, 805.7 754.5 C 803.4 753.9, 802.9 754.2, 802 756.5 M 825.7 773.8 C 824.2 775.3, 823 776.9, 823 777.2 C 823 777.6, 825.6 779.3, 828.8 781.1 C 841.6 788.4, 855.3 805.5, 860.7 821.2 C 862.1 825.2, 863.4 828.6, 863.5 828.8 C 864.2 829.5, 869 825.7, 869 824.5 C 869 823.8, 871.1 822, 873.6 820.5 L 878.2 817.8 877.8 812.9 C 877.2 806.6, 877.1 806.5, 871.1 808.1 C 861.2 810.6, 854.7 806.4, 847 792.4 C 843.3 785.6, 831 771, 829 771 C 828.7 771, 827.2 772.3, 825.7 773.8 M 358 781.9 C 358 782.4, 360.3 790.8, 363.1 800.6 C 365.9 810.5, 371.1 829.8, 374.6 843.5 C 378.2 857.3, 383.7 878, 387 889.5 C 390.2 901, 396.7 925.1, 401.5 943 C 415 994.1, 426.3 1033.1, 427.5 1032.7 C 429.9 1031.9, 429.1 1022, 425.5 1008.8 C 420.7 991.5, 406.6 940.7, 399.7 916 C 396.7 905.3, 391.9 887.7, 389 877 C 386.2 866.3, 381.4 848.3, 378.3 837 C 375.2 825.7, 371 809.3, 368.8 800.5 C 365.8 788, 364.5 784.1, 362.7 782.8 C 360.3 780.9, 358 780.5, 358 781.9 M 813 785.9 C 811.1 787.4, 802.5 794.1, 794 800.9 C 785.5 807.6, 775 816.1, 770.6 819.7 L 762.7 826.4 765.1 828.2 C 766.4 829.2, 770.4 832.2, 774 834.8 C 784.4 842.4, 795.7 858.3, 797.7 868 C 798.6 873, 800.1 873.2, 805 869.4 C 807.5 867.4, 820.2 858.1, 833.3 848.7 L 857.2 831.6 856.5 827.1 C 854.2 811.9, 841.3 794.9, 824.9 785.5 C 819.3 782.3, 817.3 782.4, 813 785.9 M 351 796.9 C 351 809.2, 352.9 820.2, 357.6 835 C 363 852.3, 375.7 881.1, 376.7 878.4 C 376.9 877.8, 374.9 869.5, 372.2 859.9 C 369.5 850.3, 364 830, 359.9 814.8 C 355.9 799.5, 352.2 787, 351.8 787 C 351.4 787, 351 791.4, 351 796.9 M 861.8 788.1 C 859.2 789.5, 859.3 799, 861.8 801.3 C 867.1 806.1, 877.5 800, 875 793.6 C 872.8 787.8, 866.6 785.2, 861.8 788.1 M 373 791.3 C 373 794.4, 381.1 825.1, 390.8 858.5 C 395.2 873.9, 400.7 893.7, 403 902.5 C 405.3 911.3, 409.6 927, 412.5 937.5 C 420.4 965.5, 429.2 997.2, 429.8 999.8 C 430.8 1004.7, 432.5 1000.8, 434.7 988.5 L 436.9 975.6 435.1 967.1 C 434 962.4, 429.3 944.3, 424.5 927 C 419.7 909.7, 414.3 889.6, 412.4 882.5 C 406.3 859.9, 394 816.9, 390.8 807.2 L 387.8 797.8 380.9 793.4 C 372.9 788.3, 373 788.3, 373 791.3 M 397 801 C 397 802.1, 398.3 807.8, 399.9 813.7 C 401.5 819.7, 404.7 831.7, 407 840.5 C 409.2 849.3, 414.2 867.1, 418 880 C 426.8 910.2, 437 947.1, 440.9 962.8 C 442.6 969.5, 449.6 994.9, 456.5 1019.3 C 463.4 1043.6, 471.1 1070.9, 473.7 1080 C 476.2 1089.1, 478.7 1097.3, 479.2 1098.3 C 480.1 1100, 482.5 1100.6, 483.3 1099.3 C 484.1 1097.9, 474.8 1063.4, 452.8 986.5 C 448.4 971.1, 442.8 951.1, 440.3 942 C 435.2 922.7, 429.5 902.5, 423.5 881.5 C 421.1 873.3, 416.8 858.2, 414 848 C 411.1 837.8, 406.8 822.8, 404.4 814.7 C 402 806.5, 400 799.6, 400 799.4 C 400 799.2, 399.3 799, 398.5 799 C 397.7 799, 397 799.9, 397 801 M 991 827.6 C 983.7 828.8, 978 830.2, 978 830.8 C 978 831.2, 984 831.5, 991.3 831.5 C 1003.5 831.5, 1005.2 831.8, 1013.1 834.6 C 1028.4 840, 1041.7 850.8, 1049 863.4 C 1052.6 869.8, 1057 881.9, 1057 885.5 C 1057 886.9, 1057.5 888, 1058 888 C 1060.9 888, 1056.9 870.5, 1051.7 860.5 C 1047.3 852, 1033.4 838.4, 1025 834.3 C 1014.7 829.3, 999.2 826.2, 991 827.6 M 756.2 834.2 C 754.5 835.9, 754.7 837.5, 757.6 843.3 C 765.2 858.2, 775.9 870.2, 785.8 874.8 C 793.2 878.2, 793.7 877.1, 789.9 866.4 C 785.6 854.2, 785.1 853.4, 777.3 845.9 C 766.4 835.4, 759.1 831.3, 756.2 834.2 M 979.3 836 C 970.8 837.6, 963.4 840.8, 958.8 845.1 C 955.1 848.6, 954.9 849, 957 848.5 C 958.4 848.1, 962.9 846.9, 967 845.9 C 972.9 844.3, 976.6 844, 984.5 844.3 C 1015.4 845.8, 1039.2 865, 1046.8 894.5 C 1048.4 900.8, 1048.8 901.5, 1051 901.5 C 1053.5 901.5, 1053.5 901.4, 1053.4 893.5 C 1053.3 868.2, 1033.8 844.2, 1008 837.5 C 1000.2 835.5, 986.3 834.8, 979.3 836 M 923.5 859 C 922.3 859.4, 920.8 860.5, 920.1 861.4 C 917.7 864.3, 923 865.2, 937.3 864.4 C 947.4 863.9, 950.3 863.4, 950.7 862.2 C 951.9 859.1, 948.1 858, 936.6 858.1 C 930.5 858.1, 924.6 858.5, 923.5 859 M 970.1 860.1 C 965.4 861, 963.7 862, 965.7 862.7 C 966.4 862.9, 968.5 864.2, 970.5 865.6 C 972.5 866.9, 975.5 868, 977.3 868 C 982.7 868, 991.8 870.8, 999.4 874.8 C 1004.9 877.6, 1009.5 881.4, 1019.4 891.3 C 1035 906.6, 1038.2 907.1, 1031 893 C 1018.9 869.2, 993.5 855.5, 970.1 860.1 M 912.1 869.1 C 910.8 870.6, 909.5 871, 908 870.5 C 904.9 869.5, 899.1 876.3, 893.9 886.9 C 886.4 902.4, 879.4 906.9, 859 909.5 C 850.8 910.6, 843 914.3, 843 917.3 C 843 917.8, 851.5 917.9, 865.3 917.5 C 884.7 916.8, 887.7 916.9, 888.8 918.3 C 891 921, 888.5 921.4, 864.5 922 C 851.9 922.3, 841 922.9, 840.3 923.3 C 837.2 925.2, 836.5 935.2, 836.6 973 C 836.8 1014.9, 838.6 1043.2, 841.4 1047.5 C 845.5 1053.8, 841.8 1053.5, 926.5 1053.5 L 1003.5 1053.5 1004 1001.3 C 1004.3 972.6, 1004.8 948.8, 1005.3 948.4 C 1007.6 946.1, 1008 952.8, 1008.2 1001.5 L 1008.5 1053.5 1036.5 1053.1 C 1054.6 1052.9, 1065.4 1052.4, 1067 1051.6 C 1068.4 1051, 1070.4 1048.7, 1071.5 1046.5 C 1073.4 1042.7, 1073.5 1040.5, 1073.5 1001 C 1073.5 955.6, 1073.3 953.8, 1067.7 949.6 C 1063.9 946.8, 1044.2 945.8, 1042.1 948.3 C 1041.2 949.5, 1040.9 954, 1041.2 966.1 C 1041.5 984.2, 1040.6 981.9, 1050.5 988.3 C 1054.2 990.7, 1056.2 993, 1058.5 997.4 L 1061.5 1003.4 1061.5 1023.4 C 1061.5 1040.6, 1061.3 1043.5, 1060 1043.5 C 1058.7 1043.5, 1058.4 1040.4, 1058 1024 C 1057.4 999, 1055.5 994.4, 1043.8 988.4 C 1037.3 985.1, 1036.6 982, 1037.4 962.5 C 1038.2 943, 1037.8 943.5, 1053.3 943.5 C 1065.5 943.6, 1069 944.6, 1072.8 949.5 C 1073.9 950.9, 1075.1 952, 1075.5 952 C 1077 952, 1075.1 936.3, 1072.8 930 L 1070.5 923.5 1024.6 923.2 L 978.8 923 975 926.8 C 972.9 929.1, 969.9 931, 968 931.3 C 966.2 931.7, 950.7 932, 933.6 932 C 897.5 932, 897.3 931.9, 893 923.6 C 890.7 919.1, 890.5 918, 891.2 911.6 C 893.6 888.6, 900.1 877.6, 912.2 875.9 C 920.4 874.7, 952.3 874.9, 958 876.1 C 969 878.5, 975.3 888.8, 978.3 909.5 L 979.6 918.5 1023.5 918.5 C 1057.7 918.5, 1067.4 918.2, 1067.8 917.3 C 1068.1 916.3, 1065 916, 1054.7 916 C 1040.4 916, 1039.5 915.7, 1038.8 911 C 1038.5 908.8, 1037.9 908.4, 1033.5 907.9 C 1030.8 907.6, 1027.8 907, 1026.8 906.6 C 1025.6 906.1, 1025 906.5, 1024.5 908 C 1022.1 915.5, 988 915.5, 984 908 C 983.4 907, 983 903.6, 983 900.6 C 983 891.1, 974 873.7, 966.7 869.1 L 963.5 867.1 961.3 869.2 C 959 871.3, 957 870.9, 957 868.3 C 957 867.2, 956.4 866.9, 954.8 867.5 C 946.4 870.1, 920.8 870.5, 916.2 868.1 C 914.5 867.2, 913.7 867.4, 912.1 869.1 M 978 872.5 C 978 872.7, 980.3 877.2, 983.1 882.4 L 988.1 891.9 1000.3 891.3 C 1007 891, 1012.7 890.5, 1013 890.3 C 1013.9 889.4, 1003.8 881.1, 998.1 878.1 C 990.4 874.1, 978 870.6, 978 872.5 M 909 881.7 C 898.1 887.3, 891.2 921.3, 900 926 C 901.3 926.7, 940.4 927.4, 963.8 927.1 C 970.2 927, 974 922.9, 974 916.1 C 974 903.2, 967.6 885.5, 961.7 882.2 C 956.8 879.5, 914.1 879.1, 909 881.7 M 914.7 887.4 C 907 890.2, 905.2 893.8, 904.3 907.9 C 903.7 917.7, 904.6 922, 907.3 922 C 908.1 922, 908.6 918.9, 908.8 911.2 C 909.2 891.4, 910.1 890.6, 932 890.2 C 958 889.7, 958.7 890.1, 960.3 909.4 C 960.9 916.3, 961.8 922, 962.2 922 C 965 922, 965.8 912.5, 963.9 901 C 961.8 887.8, 958.4 886, 935 886.1 C 923.8 886.1, 917.3 886.5, 914.7 887.4 M 1325.5 894 C 1325.1 894.6, 1325.1 897.9, 1325.5 901.3 C 1326.8 913, 1322.4 920.9, 1313.4 923.1 C 1307.8 924.5, 1307.1 925.5, 1306.2 933.3 C 1305.2 941.3, 1303.4 944.1, 1296.5 948.5 C 1289.9 952.8, 1289.3 953.6, 1291.6 956.1 C 1293.8 958.5, 1296.3 958.5, 1301.8 956 C 1309.5 952.5, 1315 944.4, 1315 936.5 C 1315 931.9, 1315 931.9, 1320.4 929.5 C 1331.9 924.4, 1337.3 912.9, 1333.9 900.5 C 1332.2 894.3, 1327.5 890.7, 1325.5 894 M 917.7 896.3 C 916.3 897.2, 915.8 899.7, 915.3 907.6 C 914.4 922.2, 914.2 922, 934.8 922 C 955.4 922, 954.5 922.6, 953.6 908.4 C 953.1 900, 952.6 897.2, 951.3 896.3 C 948.9 894.5, 920.1 894.5, 917.7 896.3 M 920.4 900.3 C 920.1 901.1, 920 905.2, 920.2 909.6 L 920.5 917.5 934.3 917.8 C 950.7 918.1, 950.7 918.1, 949.3 906.4 L 948.5 899.5 934.7 899.2 C 923.8 899, 920.9 899.2, 920.4 900.3 M 853.7 945.7 C 849.2 946.9, 849 949.2, 849 996.8 C 849 1041.2, 849 1041.7, 851.1 1043.6 C 853.1 1045.4, 855.8 1045.5, 923.5 1045.5 C 991.2 1045.5, 993.9 1045.4, 995.9 1043.6 C 998 1041.7, 998 1041.2, 998 995.3 C 998 950.3, 997.9 948.9, 996 947 C 994 945, 992.7 945, 924.8 945.1 C 886.7 945.2, 854.7 945.4, 853.7 945.7 M 854.7 950.8 C 853.2 952.5, 853 957, 853 996.3 C 853 1038.4, 853.1 1040, 854.9 1041 C 858.2 1042.7, 991.4 1042.4, 992.9 1040.6 C 993.7 1039.7, 993.9 1026.7, 993.8 994.4 L 993.5 949.5 924.9 949.2 C 859.5 949, 856.2 949.1, 854.7 950.8 M 1015.4 953.4 C 1010.6 958.2, 1010.7 962.9, 1015.5 967.7 C 1018.8 971, 1019.4 971.2, 1023.7 970.7 C 1030 970, 1033 966.7, 1033 960.4 C 1033 950.5, 1022.5 946.3, 1015.4 953.4 M 1018.6 955.1 C 1014.5 958.3, 1015.1 965.3, 1019.7 967.1 C 1027.5 970, 1033.5 959.2, 1026.7 954.5 C 1023.8 952.5, 1021.8 952.6, 1018.6 955.1 M 1486.8 969.5 C 1486.5 969.8, 1486.7 972.4, 1487.2 975.3 C 1487.7 978.1, 1487.8 984.3, 1487.5 989 L 1486.9 997.5 1494.7 1004.6 C 1509.6 1018.2, 1514.5 1033.9, 1510.4 1055.6 C 1509.9 1058.2, 1510.4 1059.3, 1514.1 1063.1 C 1521 1070.3, 1524 1075, 1524 1078.7 C 1524 1082.7, 1520.7 1082.7, 1557.1 1079 C 1598.6 1074.7, 1603.2 1074.2, 1604.2 1073.2 C 1605.8 1071.6, 1611.4 1023.5, 1610.7 1017.2 C 1610.5 1014.9, 1608.8 1010.1, 1607.1 1006.6 C 1603.6 999.5, 1603.4 998.2, 1605.4 997.4 C 1607.5 996.6, 1612.2 999.4, 1615.8 1003.4 C 1621.4 1009.9, 1622.1 1019, 1618.6 1044.5 C 1617.8 1050.5, 1617 1059.3, 1616.8 1064 L 1616.5 1072.5 1623.3 1072.1 C 1635.1 1071.5, 1635.4 1071.4, 1636.2 1063.9 C 1636.5 1060.4, 1637.6 1052.2, 1638.4 1045.7 C 1641.6 1022, 1640.1 1010.3, 1632.6 998.6 C 1624.7 986.4, 1614.2 981.5, 1590.4 979 C 1584.9 978.4, 1579.8 977.7, 1579 977.5 C 1578.2 977.2, 1570.3 976.4, 1561.5 975.6 C 1552.7 974.7, 1533.3 972.9, 1518.5 971.5 C 1489.6 968.8, 1487.6 968.7, 1486.8 969.5 M 1230.3 975.2 C 1229.7 975.9, 1228.6 979.3, 1228 982.8 C 1226.1 992.1, 1223.8 995, 1216.2 997.2 C 1208.7 999.5, 1207.5 1001.3, 1211.5 1004.8 C 1214.9 1007.7, 1220.6 1007.4, 1224.9 1004.2 C 1231 999.7, 1236.3 988, 1236.4 979 C 1236.5 974.9, 1236.3 974.5, 1233.9 974.2 C 1232.5 974, 1230.8 974.5, 1230.3 975.2 M 1084 980.9 C 1081.6 981.6, 1081.5 982, 1081.2 990.4 L 1080.9 999.3 1093.7 998.6 C 1109.5 997.7, 1111 997, 1111 990 C 1111 980.2, 1110.7 980, 1097.8 980.1 C 1091.6 980.2, 1085.4 980.5, 1084 980.9 M 438.7 1004.8 C 436.3 1024.1, 436.3 1024.1, 443.4 1050.1 C 452.6 1083.5, 459.9 1109, 460.6 1110.1 C 461.1 1110.9, 470.7 1106.3, 473.3 1104 C 473.7 1103.7, 473.2 1100.5, 472.1 1096.9 C 471.1 1093.4, 468.5 1084.4, 466.5 1077 C 461.6 1059.3, 447.5 1009.9, 442.4 992.8 C 441.2 988.8, 440.4 991.7, 438.7 1004.8 M 1027 994.5 C 1017 999, 1013.1 1010.5, 1018.1 1020.7 C 1026 1037, 1052 1030.5, 1052 1012.2 C 1052 998.8, 1038.6 989.3, 1027 994.5 M 1026.2 999 C 1019.5 1003.1, 1017.1 1011.8, 1020.8 1018.9 C 1027.7 1032.5, 1049 1027.2, 1049 1012 C 1049 1000.5, 1036 993.1, 1026.2 999 M 1027.9 1005.9 C 1020 1013.9, 1031 1026.1, 1039.5 1018.8 C 1043.4 1015.3, 1043.9 1010.2, 1040.5 1006.2 C 1036.9 1001.9, 1032.1 1001.8, 1027.9 1005.9 M 1301.3 1004.9 C 1296.3 1006.2, 1289.5 1010.6, 1285.5 1015.2 C 1281.7 1019.6, 1277 1028.3, 1277 1031 C 1276.9 1036.5, 1274.8 1040, 1270.3 1042 C 1259.9 1046.6, 1255.1 1052.4, 1252.2 1063.9 L 1250.3 1071.2 1242.4 1071.4 C 1233.1 1071.6, 1228 1073.8, 1220.9 1080.6 C 1216.4 1085.1, 1216.3 1085.1, 1211.9 1084.1 C 1206.6 1082.9, 1205 1084.3, 1205 1090.1 C 1205 1094.4, 1205.6 1094.9, 1213.3 1097.8 C 1222.2 1101.1, 1223.3 1100.9, 1226.9 1094.6 C 1234.1 1081.7, 1245.1 1080.5, 1256.8 1091.2 C 1261.7 1095.7, 1261.7 1095.7, 1273.7 1091.9 C 1282.4 1089.2, 1285.2 1089.7, 1295.6 1096.5 C 1302.8 1101.2, 1304.8 1101.8, 1306.8 1099.8 C 1309.2 1097.4, 1308 1094.3, 1303 1089.6 C 1294 1081.2, 1282.6 1077.6, 1271.9 1079.9 C 1264.7 1081.5, 1263.5 1080.2, 1263.5 1071.2 C 1263.5 1059.3, 1270.8 1051, 1281.2 1051 C 1287.6 1051, 1289.3 1048.4, 1288.5 1039.6 C 1287.7 1031.6, 1288.5 1029.1, 1293.7 1023 C 1297.1 1018.9, 1305.3 1015, 1310.5 1015 C 1315.1 1015, 1317 1013.6, 1317 1010.5 C 1317 1005.7, 1309.1 1002.9, 1301.3 1004.9 M 1030.2 1008.2 C 1029.5 1008.9, 1029 1010.6, 1029 1012 C 1029 1016.9, 1034.1 1018.8, 1037.3 1015.2 C 1040.7 1011.5, 1038.8 1007, 1034 1007 C 1032.6 1007, 1030.9 1007.5, 1030.2 1008.2 M 1091.6 1027.3 C 1090.8 1038.2, 1088.7 1046.7, 1084.4 1056.7 L 1080.8 1065 1082.4 1069.8 C 1083.9 1074.2, 1086.7 1079.2, 1091.5 1085.7 C 1092.9 1087.5, 1092.9 1088.5, 1091.9 1092.2 C 1091.2 1094.5, 1090.6 1100.5, 1090.6 1105.5 C 1090.6 1116.2, 1093.6 1124.3, 1100.1 1130.6 C 1103.9 1134.3, 1104 1134.3, 1106 1132.5 C 1108.7 1130, 1108.5 1127.3, 1104.9 1119.7 C 1100.6 1110.3, 1100.2 1104.4, 1103.4 1094.6 C 1106.6 1085, 1106.6 1085.8, 1103 1081.7 C 1101.4 1079.8, 1098.6 1075.2, 1096.9 1071.6 C 1092.5 1062.2, 1092.9 1052.4, 1098.3 1040.1 L 1102 1031.7 1097.8 1025.4 C 1095.5 1021.9, 1093.3 1019, 1092.9 1019 C 1092.6 1019, 1092 1022.7, 1091.6 1027.3 M 433 1049.3 C 433 1057.3, 448.3 1115.8, 450.7 1116.7 C 453.3 1117.7, 454.9 1115.2, 453.9 1111.7 C 453.3 1109.9, 449.5 1096.3, 445.4 1081.5 C 435.1 1044.5, 435 1044, 433.9 1044 C 433.4 1044, 433 1046.4, 433 1049.3 M 906.3 1061.6 C 904.9 1065.4, 908.9 1067.6, 922.5 1070.7 C 932.1 1072.8, 947.4 1072.7, 959.8 1070.5 C 971.1 1068.5, 975.3 1066.3, 974.8 1062.6 C 974.5 1060.5, 974.4 1060.5, 940.7 1060.2 C 910.1 1060, 906.9 1060.1, 906.3 1061.6 M 428.7 1072.8 C 428 1073.9, 424.2 1092.5, 422.6 1103 C 419 1126.4, 419.6 1142.1, 425.2 1163.5 C 428.6 1176.6, 429.4 1178.2, 432.7 1177.4 C 435.7 1176.6, 435.7 1176.6, 434.8 1156 C 433.9 1135.4, 434.2 1133.5, 439.5 1126.8 C 441.4 1124.4, 443 1121.4, 443 1120 C 443 1118.6, 440.3 1107.4, 437 1095.2 C 433.7 1082.9, 431 1072.7, 431 1072.4 C 431 1071.7, 429.1 1072, 428.7 1072.8 M 1623.5 1080.6 C 1616.3 1081.3, 1598.8 1083.1, 1584.5 1084.5 C 1570.2 1085.9, 1532.6 1089.7, 1501 1093 C 1469.4 1096.2, 1428.9 1100.3, 1411 1102 C 1393.1 1103.8, 1376.8 1105.6, 1374.8 1106.1 C 1368 1107.8, 1367.9 1108.2, 1356.5 1166.2 C 1350.7 1195.5, 1344.2 1228.3, 1342 1239 C 1333.6 1280.7, 1325.8 1324.9, 1326.4 1326.7 C 1326.7 1327.4, 1328.4 1327.6, 1331.2 1327.3 C 1337.1 1326.6, 1419.5 1314.4, 1435 1312 C 1441.9 1310.9, 1464.8 1307.6, 1486 1304.6 C 1581.2 1291, 1598.5 1288.3, 1600 1286.5 C 1600.6 1285.8, 1603.5 1275.2, 1606.5 1262.9 C 1609.4 1250.6, 1616.4 1221.6, 1622 1198.5 C 1627.6 1175.4, 1634.8 1145.3, 1638 1131.5 C 1641.2 1117.8, 1645 1101.2, 1646.6 1094.7 C 1648.7 1085.9, 1649.1 1082.4, 1648.3 1081.2 C 1647 1079, 1640.3 1078.8, 1623.5 1080.6 M 936 1082.9 C 935.5 1084, 935 1086.3, 935 1088.1 C 935 1089.8, 934.5 1093, 933.8 1095.1 C 932.2 1100.6, 934.5 1103, 941 1103 C 947.7 1103, 948.8 1101.4, 946.6 1094.9 C 945.7 1092.1, 945 1088.7, 945 1087.3 C 945 1083.3, 943.2 1081, 940 1081 C 938.1 1081, 936.7 1081.7, 936 1082.9 M 695.5 1094.6 C 693.9 1094.8, 689 1095.5, 684.6 1096.1 C 674.2 1097.5, 664.8 1100.5, 661.2 1103.5 C 655.5 1108.3, 654.8 1112, 654.6 1138.5 L 654.3 1162.5 651.9 1162.8 C 650.6 1163, 634.2 1166.1, 615.5 1169.6 C 596.8 1173.2, 568.2 1178.5, 552 1181.5 C 516.8 1187.9, 506.3 1190.3, 499.2 1193.5 C 494.5 1195.6, 494 1196.2, 494.9 1197.8 C 495.5 1198.9, 497.2 1200, 498.7 1200.3 C 501.4 1200.8, 518.2 1198.4, 532.5 1195.5 C 536.4 1194.7, 553.7 1191.6, 571 1188.5 C 588.3 1185.5, 612.9 1180.9, 625.5 1178.3 C 638.1 1175.8, 649.9 1173.6, 651.5 1173.6 L 654.5 1173.5 655.7 1193.5 C 657.9 1230.8, 659.8 1235.8, 673.6 1241 C 686.8 1245.9, 714 1247.5, 732.5 1244.5 C 755.3 1240.8, 760.3 1236.8, 763.4 1219.5 L 764.5 1213.5 770.5 1213.2 C 793.4 1212.2, 810 1194, 810 1170 C 810 1167.3, 810.3 1164.9, 810.8 1164.6 C 811.2 1164.4, 814.2 1164.8, 817.5 1165.6 C 823.5 1167, 842.6 1169.8, 874.2 1174.1 C 892.5 1176.6, 894 1176.4, 894 1171 C 894 1166.7, 892.2 1166, 876.3 1164 C 868.2 1162.9, 852.1 1160.7, 840.6 1159 C 829.2 1157.4, 817.6 1156, 814.9 1156 L 810 1156 807.1 1150.2 C 800.6 1137.3, 790.2 1130.4, 774.8 1128.6 L 766 1127.6 766 1119.1 L 766 1110.6 761 1105.9 C 755.7 1100.7, 749 1098.1, 736 1096 C 729 1094.9, 700.4 1093.9, 695.5 1094.6 M 954.6 1099.9 C 953.6 1106, 949.4 1109, 941.7 1109 C 933.8 1109, 929.4 1106.5, 927.2 1100.9 C 922.9 1089.8, 919.3 1105.4, 919.1 1136.1 C 919 1143.9, 919.3 1146, 920.7 1147.1 C 921.9 1148.2, 926.5 1148.5, 940.5 1148.5 C 954.4 1148.5, 959.1 1148.2, 960.3 1147.1 C 962.3 1145.5, 962.8 1128.2, 961 1126.4 C 960.2 1125.6, 960.3 1122.5, 961.1 1116.2 C 962.2 1107.2, 962.2 1107, 959.6 1101.5 C 956.4 1095, 955.5 1094.7, 954.6 1099.9 M 968.3 1103.6 C 968.7 1105.7, 969 1108.4, 969 1109.5 C 969.1 1113.7, 970.7 1114.6, 973 1111.7 C 976 1107.9, 981.6 1107.9, 985.4 1111.9 C 992.5 1119.3, 992.8 1136.8, 985.8 1141.4 C 981.3 1144.4, 977.7 1144.4, 974.3 1141.6 C 970.3 1138.2, 970 1138.3, 970 1143 C 970 1146.4, 970.4 1147.2, 973 1148.5 C 976.8 1150.5, 980 1155.5, 980 1159.6 C 980 1164.2, 982 1165.4, 986.5 1163.6 C 991.9 1161.3, 1002.3 1152, 1001.6 1150.1 C 998.2 1139.9, 996.6 1133.2, 996 1126.9 C 995.4 1121.3, 994.3 1117.3, 991.9 1112.4 C 987.8 1104.2, 983.9 1101.5, 974.1 1100.4 L 967.7 1099.7 968.3 1103.6 M 683.5 1105.4 C 662.7 1109.4, 661.3 1112.7, 678.5 1116.7 C 691.3 1119.6, 730.1 1119.3, 742.7 1116.2 C 756.9 1112.6, 757.1 1110.6, 743.4 1106.9 C 733.3 1104.1, 695.1 1103.2, 683.5 1105.4 M 478.5 1109.1 C 463.1 1117.3, 448.2 1127.1, 443.6 1131.9 C 441.5 1134.1, 440.6 1136.2, 440.2 1139.8 C 439.8 1144.6, 440 1145, 444.1 1149.5 C 451.6 1157.6, 476.3 1168, 488.2 1168 C 492.8 1168, 497.4 1164.2, 498.6 1159.4 C 499.6 1155.5, 496.9 1142.5, 491.2 1123.5 C 485.8 1105.6, 485.5 1105.3, 478.5 1109.1 M 977.3 1116.2 C 976.7 1116.9, 975.8 1118.8, 975.3 1120.5 C 974.8 1122.2, 973.4 1123.9, 972.2 1124.5 C 971 1125, 970 1126.2, 970 1127 C 970.1 1129.1, 979.7 1137.3, 981.4 1136.7 C 984.3 1135.6, 984.9 1124.2, 982.2 1119.1 C 980.3 1115.2, 978.8 1114.3, 977.3 1116.2 M 750 1121.2 C 726.8 1127.6, 693.3 1127.8, 669.3 1121.6 C 666.5 1120.8, 663.9 1120.5, 663.6 1120.8 C 661.4 1123, 664.6 1214.6, 667.2 1223.1 C 669.4 1230.6, 677.8 1234.7, 695.7 1237.1 C 712.6 1239.3, 741.3 1236.3, 748.7 1231.5 C 752.5 1229, 754 1225.7, 755 1217.4 C 757.3 1198.3, 759.1 1120.7, 757.3 1119.7 C 756.8 1119.5, 753.6 1120.2, 750 1121.2 M 1516.3 1133.8 C 1510.2 1136, 1504.7 1139.9, 1502.3 1144 C 1500 1147.9, 1499.8 1147.8, 1494.6 1142.4 C 1491.1 1138.7, 1489.6 1137.9, 1487.3 1138.2 C 1482.8 1138.7, 1483 1142.1, 1487.8 1145.3 C 1490.6 1147.1, 1492.3 1149.3, 1493.5 1152.3 C 1495.9 1158.6, 1495.3 1160.1, 1489.8 1161.7 C 1482.9 1163.7, 1476.7 1171, 1474 1180.3 C 1472.8 1184.3, 1471.4 1188.9, 1470.9 1190.7 C 1470.3 1192.5, 1467 1197.7, 1463.6 1202.4 C 1454.6 1214.4, 1452.7 1218.8, 1452.2 1228.6 C 1451.6 1239.2, 1453.6 1245.2, 1459.8 1252.1 C 1467.3 1260.4, 1473.2 1263.4, 1485.3 1265 C 1500 1266.8, 1514 1262.3, 1523.5 1252.6 C 1532.5 1243.3, 1538.1 1228.8, 1536.6 1218.7 C 1535.8 1213.3, 1534.4 1212, 1528.3 1210.9 C 1522.8 1209.8, 1519.5 1207.1, 1518.6 1202.8 C 1518.3 1201, 1516.8 1197.2, 1515.4 1194.3 L 1512.9 1188.9 1515.9 1184.1 C 1517.6 1181.5, 1519 1178.2, 1519 1176.9 C 1518.9 1171.2, 1512.4 1162, 1508.4 1162 C 1504.7 1162, 1507.7 1160.1, 1512.9 1159.1 C 1524.2 1156.9, 1535.7 1144.6, 1534.8 1135.7 L 1534.5 1132.5 1528 1132.3 C 1523.8 1132.1, 1519.7 1132.7, 1516.3 1133.8 M 767.4 1138.3 C 765.8 1142.5, 767.3 1144.5, 772.5 1145.1 C 784.5 1146.6, 790.9 1154.1, 791.8 1167.6 C 792.8 1183.4, 784.3 1194.8, 770.1 1196.9 C 765.6 1197.5, 765.5 1197.6, 765.5 1201 L 765.5 1204.5 771.5 1204.4 C 782.5 1204.2, 793.1 1196.4, 798.8 1184.2 C 801.1 1179.4, 801.5 1177.2, 801.4 1170 C 801.2 1150.9, 791.1 1138.6, 774.4 1137.2 C 769.2 1136.8, 767.9 1137, 767.4 1138.3 M 1520.5 1139.1 C 1513.3 1140.8, 1504.6 1148.9, 1506.6 1152.1 C 1507.4 1153.5, 1514.1 1152.5, 1518 1150.5 C 1521.7 1148.6, 1527 1142.4, 1527 1140 C 1527 1137.8, 1526.4 1137.7, 1520.5 1139.1 M 911.5 1154.1 C 910.5 1155.7, 913.6 1158.6, 917.8 1159.8 C 924.4 1161.8, 940.3 1163.2, 947.8 1162.6 C 961.1 1161.4, 972.2 1156.8, 969.2 1153.8 C 968.3 1152.9, 966.9 1152.9, 963.2 1153.9 C 955.6 1156.1, 933.6 1156.5, 924.3 1154.6 C 914.9 1152.7, 912.4 1152.6, 911.5 1154.1 M 441 1167 C 441 1175.9, 441 1176.1, 443.7 1177.1 C 445.2 1177.6, 447.5 1178, 448.9 1177.8 C 451.4 1177.5, 451.5 1177.2, 451.8 1170.4 L 452.1 1163.3 448.1 1160.7 C 441.4 1156.3, 441 1156.7, 441 1167 M 767.3 1159.3 C 766.2 1161, 765.6 1187, 766.6 1188 C 768.1 1189.4, 775.3 1186.3, 778.2 1183.1 C 783.8 1176.9, 784.4 1164.6, 779.5 1160.3 C 776.6 1157.7, 768.7 1157.1, 767.3 1159.3 M 908.5 1162.8 C 907.8 1163.5, 907.9 1171.2, 908.6 1174.9 C 909.5 1179.4, 912.5 1180.9, 922.9 1182.3 L 932 1183.4 935.2 1180.3 C 942.5 1173.2, 949 1172.7, 956.1 1178.6 C 960.9 1182.6, 960.2 1182.4, 966.8 1180.5 C 973 1178.6, 974 1177, 974 1169.2 C 974 1162.2, 973.5 1161.5, 970.3 1164 C 961.9 1170.6, 927.2 1171.3, 914.7 1165.2 C 911.6 1163.6, 908.8 1162.6, 908.5 1162.8 M 1489.4 1168.8 C 1484.8 1171.8, 1482.3 1175.8, 1479.9 1184.6 C 1477.3 1194.2, 1474.7 1199.5, 1468.4 1208 C 1454.4 1227, 1456 1244.9, 1472.7 1253.7 C 1495.7 1266, 1524.3 1253.2, 1528.9 1228.6 C 1530.2 1221.5, 1529.2 1218.9, 1524.4 1217.5 C 1516.7 1215.2, 1511 1209.3, 1511 1203.7 C 1511 1202.4, 1509.8 1200.3, 1508.4 1198.9 C 1506.1 1196.7, 1505.8 1195.9, 1506.2 1190.4 C 1506.5 1186.1, 1507.2 1183.6, 1508.8 1181.5 C 1511.7 1177.9, 1511.6 1173.8, 1508.6 1170.3 C 1505.4 1166.6, 1494.3 1165.7, 1489.4 1168.8 M 988.3 1174.2 C 982.8 1175.2, 982 1176.3, 984.4 1179.6 C 985.6 1181.2, 987.1 1181.5, 992.7 1181.5 L 999.5 1181.5 999.5 1184.9 C 999.5 1187.6, 998.9 1188.7, 996.6 1189.9 C 995 1190.8, 993.7 1191.9, 993.7 1192.4 C 993.6 1193.8, 1005.4 1210.9, 1006.5 1211 C 1007.1 1211, 1008.9 1208.6, 1010.7 1205.8 C 1012.4 1202.9, 1016.8 1197, 1020.4 1192.8 C 1024 1188.5, 1027 1184.8, 1027 1184.5 C 1027 1184.2, 1023.7 1184, 1019.8 1184 C 1010.9 1183.9, 1006.5 1182.4, 999.6 1177.1 C 996.7 1174.9, 994.1 1173.1, 993.9 1173.1 C 993.7 1173.2, 991.1 1173.7, 988.3 1174.2 M 942.5 1182.4 C 937.4 1187.5, 937.2 1186, 953 1250 C 958.4 1271.7, 963.5 1293, 964.4 1297.2 C 965.4 1301.5, 966.5 1305.2, 967 1305.5 C 967.5 1305.8, 970.9 1304.5, 974.7 1302.7 C 981.3 1299.5, 981.5 1299.3, 981.3 1295.8 C 981 1291.2, 957.4 1196.2, 954.8 1189.1 C 951.4 1180, 947.2 1177.7, 942.5 1182.4 M 431.3 1184.9 C 421.2 1189.8, 409.9 1203.3, 413.2 1206.6 C 418.1 1211.5, 450.1 1213.4, 466.2 1209.7 C 475.7 1207.5, 476.4 1206.7, 474.1 1201.5 C 469 1190.3, 458.6 1183.3, 445.5 1182.4 C 438.1 1181.9, 437.1 1182.1, 431.3 1184.9 M 895.1 1198.7 C 863.6 1243.8, 847 1268.5, 847 1270 C 847 1272.2, 852.5 1277, 855 1277 C 856.3 1277, 859.3 1273.5, 864.3 1266.3 C 868.3 1260.3, 878.5 1245.4, 887 1233 C 895.5 1220.6, 905.9 1205.7, 910.1 1199.8 C 918.6 1188.3, 918.6 1188.3, 911.5 1186.1 C 909.3 1185.4, 907 1184.7, 906.5 1184.4 C 905.9 1184.2, 900.8 1190.6, 895.1 1198.7 M 971.3 1186 C 968.9 1187.1, 967 1188.2, 967 1188.5 C 967 1188.9, 972 1196.4, 978.2 1205.3 C 984.4 1214.2, 993.2 1227.1, 997.9 1234 C 1012.6 1255.8, 1024.6 1271.5, 1026.4 1271.5 C 1027.4 1271.5, 1029.1 1269.9, 1030.3 1267.9 L 1032.3 1264.4 1028.6 1258.4 C 1024.3 1251.5, 992.1 1204.1, 983.7 1192.2 C 980.5 1187.7, 977.3 1184, 976.7 1184.1 C 976 1184.1, 973.6 1185, 971.3 1186 M 1045.2 1186.5 C 1038.7 1189.3, 1017 1212.6, 1017 1216.6 C 1017 1218.3, 1021 1218.4, 1027.9 1216.9 C 1033 1215.8, 1034.2 1214.9, 1042.8 1204.1 C 1047.1 1198.7, 1050.7 1196.3, 1052.2 1197.8 C 1053.7 1199.3, 1052 1203, 1044.9 1214.2 C 1038.2 1224.5, 1037.6 1227.5, 1041.8 1229.1 C 1046 1230.9, 1060 1228.8, 1070.5 1224.8 L 1079.5 1221.5 1079.4 1217.6 C 1079.3 1215.3, 1077.5 1210.2, 1074.6 1204.5 C 1069.7 1194.6, 1065.1 1189.7, 1059.4 1188.5 C 1057.8 1188.1, 1054.8 1187.2, 1052.7 1186.4 C 1050.7 1185.6, 1048.9 1185, 1048.7 1185 C 1048.6 1185.1, 1047 1185.7, 1045.2 1186.5 M 926.1 1191.5 C 923.5 1195, 922.4 1200.5, 924 1202.5 C 925.5 1204.3, 932.9 1204.5, 933.5 1202.8 C 933.8 1202.1, 933.7 1198.8, 933.3 1195.5 C 932.4 1188.4, 929.8 1186.9, 926.1 1191.5 M 405.3 1213.1 C 400.3 1218.1, 409.7 1223.2, 429 1226.1 C 453.3 1229.6, 489.2 1221.7, 481.9 1214.4 C 480.4 1213, 479.7 1213, 473.4 1215 C 457.4 1219.9, 430.1 1219.9, 416.4 1215 C 407.9 1211.9, 406.6 1211.7, 405.3 1213.1 M 341 1220 C 322.6 1223.7, 301 1228, 293 1229.5 C 272.8 1233.2, 274 1231.3, 274 1258.5 L 274 1280 276.5 1281.6 C 277.9 1282.5, 286.3 1284.5, 295.3 1286.1 C 324.8 1291.3, 334.5 1293.3, 335.8 1294.3 C 336.9 1295.2, 337.1 1330.8, 336.8 1490.8 C 336.5 1683.4, 336.5 1686.2, 338.4 1687.6 C 340.5 1689.1, 343.6 1688.6, 345.8 1686.6 C 346.8 1685.6, 347 1646.8, 347 1490.7 L 347 1296 349.7 1296 C 356.1 1296, 376.4 1300, 377.9 1301.5 C 379.4 1302.9, 379.5 1320.8, 379.5 1495.3 C 379.5 1601, 379.9 1688.1, 380.3 1688.8 C 381.3 1690.3, 385.4 1690.4, 388.1 1689 C 390 1687.9, 390 1684.7, 390 1496.4 C 390 1325.2, 390.2 1304.9, 391.5 1304.3 C 392.4 1304, 403.3 1305.6, 415.8 1307.9 C 428.3 1310.1, 444.1 1312.9, 451 1314 C 457.9 1315.1, 473.6 1317.6, 486 1319.6 C 498.4 1321.5, 514.1 1324.2, 521 1325.5 C 527.9 1326.8, 540 1329, 548 1330.4 C 556 1331.7, 577 1335.6, 594.7 1338.9 C 612.4 1342.2, 634.7 1346.1, 644.2 1347.5 C 653.7 1349, 661.8 1350.5, 662.1 1350.8 C 662.5 1351.2, 663 1423, 663.3 1510.3 C 663.8 1652.9, 664 1669.4, 665.5 1671.6 C 667.4 1674.5, 668.4 1674.6, 671 1672 C 673 1670, 673 1668.7, 673 1511.4 L 673 1352.7 679.8 1353.4 C 683.6 1353.8, 688 1354.4, 689.6 1354.9 L 692.5 1355.6 693 1513.1 C 693.3 1599.7, 693.9 1671.1, 694.3 1671.8 C 695.3 1673.3, 700.6 1673.4, 701.6 1671.8 C 702 1671.1, 702.4 1600.1, 702.4 1514 L 702.5 1357.5 706.5 1357.8 C 708.7 1358, 713.6 1358.9, 717.5 1359.8 C 724.5 1361.5, 724.5 1361.5, 725.2 1365.5 C 725.6 1367.7, 725.9 1437.4, 725.9 1520.4 C 725.9 1685.8, 725.6 1675.8, 731.6 1672.8 L 734.5 1671.5 734.8 1518 C 734.9 1433.6, 735.4 1364.2, 735.8 1363.8 C 736.3 1363.3, 747.6 1365, 761.1 1367.6 C 774.5 1370.1, 801.5 1374.8, 821 1378.2 C 906.6 1392.7, 943.8 1399.2, 974.5 1405 C 986 1407.2, 1011 1411.7, 1030 1415 C 1202.7 1445.5, 1227.2 1449.9, 1229.8 1451 L 1232 1452 1232 1519.4 L 1232 1586.9 1229.8 1588.1 C 1228.5 1588.8, 1223.4 1589.6, 1218.3 1589.9 C 1210.6 1590.4, 1208.7 1590.9, 1206.9 1592.7 L 1204.7 1594.9 1207 1600.9 C 1211.8 1613.7, 1209 1622.5, 1198 1630 C 1190.7 1634.9, 1190 1636.2, 1190 1644 C 1190 1651.5, 1188.4 1655.6, 1183.7 1659.7 C 1178.4 1664.4, 1173.9 1665.3, 1166.3 1663.4 L 1160 1661.8 1155.9 1665.4 C 1145.3 1674.4, 1135.8 1675.2, 1123.5 1667.8 L 1118.6 1664.8 1111.8 1666.4 C 1096.6 1670.1, 1083.7 1662.2, 1079.5 1646.6 C 1078 1641, 1077.2 1639.7, 1073.5 1637.1 C 1062.7 1629.3, 1060.6 1616.3, 1068 1601.9 C 1072.1 1593.8, 1071.9 1592, 1066.6 1587.6 C 1056.6 1579.5, 1055.1 1565.9, 1062.5 1550.7 L 1066.3 1542.8 1064 1537.7 C 1059.5 1527.4, 1058.8 1524.6, 1059.3 1519.5 C 1060.5 1508.1, 1064.8 1501.1, 1078.2 1489.3 C 1081.2 1486.6, 1082 1485, 1083.5 1478.3 C 1084.4 1474, 1086 1468.7, 1086.9 1466.5 C 1090 1459.4, 1099.9 1452.1, 1109.9 1449.6 C 1115.1 1448.3, 1115.8 1447.2, 1113.1 1443.9 C 1110.4 1440.5, 1099.6 1440.5, 1093 1443.9 C 1081.7 1449.8, 1075.4 1457.7, 1072 1470.5 C 1068.8 1482.4, 1068.2 1483.7, 1063.1 1487.4 C 1058 1491, 1052.4 1498.7, 1049.6 1506 C 1045.7 1515.8, 1046.7 1532.1, 1051.6 1539.6 C 1053 1541.7, 1053 1542.2, 1050.7 1546.2 C 1047 1552.4, 1044.9 1560.7, 1044.8 1569.2 C 1044.7 1580.5, 1046.7 1586.7, 1052.8 1594.8 L 1055.4 1598.2 1053.7 1604.5 C 1052.8 1608, 1052 1614.4, 1052 1618.7 C 1052 1628.6, 1055.7 1637.2, 1062.9 1644 C 1066.4 1647.3, 1068.2 1650, 1069.5 1654 C 1071.8 1661.3, 1073.2 1663.8, 1077.7 1669.6 C 1081.3 1674.2, 1081.5 1674.9, 1081.5 1681.5 C 1081.5 1688.2, 1081.6 1688.5, 1084.3 1689.4 C 1087.8 1690.7, 1090.4 1689.2, 1090.8 1685.9 C 1091.6 1678.8, 1091.3 1679, 1099.8 1679.7 C 1104.1 1680, 1109.2 1679.8, 1111.3 1679.2 C 1114.7 1678.3, 1115.8 1678.5, 1121.8 1681.3 C 1130 1685.2, 1142.5 1686.2, 1149.9 1683.6 C 1155.4 1681.8, 1156 1682.1, 1156 1687.1 C 1156 1691.9, 1157.4 1692.7, 1162.3 1690.6 C 1165.9 1689.1, 1166.2 1688.4, 1167.3 1680 C 1167.4 1679.1, 1169.7 1678.1, 1173.7 1677.3 C 1189.9 1674.1, 1198.6 1665.2, 1201.2 1649.3 C 1202.2 1643.4, 1202.6 1642.9, 1208.7 1637.5 C 1217.8 1629.4, 1220.3 1624.1, 1221 1611.5 L 1221.5 1601.5 1226 1599.9 C 1228.5 1599, 1230.8 1598.4, 1231.3 1598.7 C 1231.7 1598.9, 1232 1618.8, 1232 1642.9 C 1232 1690.2, 1231.9 1689, 1237.5 1689 C 1239.2 1689, 1241.1 1688.5, 1241.8 1687.8 C 1242.7 1686.9, 1243 1659.3, 1243 1569.9 C 1243 1505.7, 1243.3 1452.9, 1243.8 1452.7 C 1244.5 1452.2, 1272.6 1454.8, 1274.8 1455.5 C 1275.7 1455.9, 1276 1479.8, 1276 1570.8 C 1276 1658.7, 1276.3 1685.9, 1277.2 1686.8 C 1279.2 1688.8, 1284.8 1688.3, 1286 1686.1 C 1286.6 1684.8, 1287 1664.1, 1287 1625.8 C 1287 1584.8, 1287.3 1567.1, 1288.1 1566.3 C 1288.9 1565.5, 1288.9 1563.7, 1288 1559.9 C 1287.2 1556.1, 1287 1539.8, 1287.2 1505.6 L 1287.5 1456.7 1296.5 1454.3 C 1313.8 1449.6, 1378.9 1430.8, 1456.5 1408.1 C 1481.3 1400.8, 1506.7 1393.3, 1513 1391.5 C 1519.3 1389.7, 1524.8 1388.4, 1525.2 1388.6 C 1526.8 1389.6, 1531.7 1400.6, 1533 1405.9 C 1534.7 1413.2, 1533.8 1424.3, 1530.9 1430.6 C 1529.5 1433.6, 1525.8 1438.3, 1521.1 1442.9 L 1513.5 1450.2 1513.3 1460.3 C 1512.8 1480.6, 1506.9 1488.3, 1488 1493 L 1481.6 1494.6 1478.5 1502.4 C 1471.4 1520.7, 1454.9 1530.5, 1437.2 1527.1 C 1433.5 1526.4, 1428.9 1525.6, 1426.9 1525.3 C 1423 1524.8, 1423.5 1524.4, 1413.7 1536.9 C 1410.6 1540.9, 1407.6 1543.3, 1402.6 1545.9 C 1396.2 1549.3, 1395.1 1549.5, 1386.5 1549.5 C 1377.8 1549.5, 1376.9 1549.3, 1370 1545.7 C 1361.6 1541.3, 1360.1 1541.5, 1356.1 1547.4 C 1348 1559.1, 1336.3 1563.4, 1323.4 1559.5 C 1315.7 1557.2, 1314.4 1557.5, 1309.2 1563.1 C 1303.8 1569, 1297.5 1573, 1293.7 1573 C 1290.5 1573, 1290.3 1574.4, 1293 1578.7 C 1296.8 1585, 1303.6 1584, 1312.5 1575.8 L 1318 1570.8 1323 1571.9 C 1337.2 1575, 1348.4 1572.2, 1358 1563.4 L 1363.9 1557.9 1370.7 1560 C 1379.9 1562.9, 1393.3 1563, 1401.1 1560.2 C 1409.4 1557.2, 1414 1554, 1421.6 1545.6 L 1428.4 1538 1438.5 1538.7 C 1460.7 1540, 1476 1531.6, 1487.8 1511.5 C 1492.4 1503.7, 1492.6 1503.5, 1497.7 1502.4 C 1500.6 1501.7, 1504.9 1500, 1507.4 1498.6 L 1511.9 1496 1515.5 1498.4 C 1522.4 1503.1, 1537.1 1503.1, 1546.7 1498.4 C 1552.8 1495.5, 1556 1492, 1560.1 1483.9 C 1561.7 1480.6, 1563.5 1478, 1564 1478 C 1566.3 1478, 1572.5 1471, 1575.1 1465.6 C 1578.9 1457.6, 1579.5 1451.2, 1577.4 1442 C 1576 1435.5, 1575.9 1433.6, 1577 1426.4 C 1579.5 1410.7, 1574.8 1399.9, 1562.6 1393 C 1557.5 1390, 1549.8 1388.9, 1548.5 1391 C 1547.3 1393, 1552 1400, 1555.9 1401.9 C 1568 1408.1, 1570.5 1417, 1564 1430.6 L 1562 1434.7 1565.4 1439.8 C 1569.7 1446.3, 1570.4 1449.6, 1569 1456.3 C 1567.7 1462.6, 1565.3 1465.3, 1559.3 1467.1 C 1554.2 1468.5, 1552.7 1470.1, 1551 1475.5 C 1546.9 1488.4, 1537.9 1495.6, 1529.1 1493 C 1520.4 1490.5, 1520 1489.5, 1523.5 1477 C 1524.3 1474, 1525 1468, 1525 1463.7 L 1525 1455.9 1530.5 1450.8 C 1547.1 1435.7, 1549.6 1407.9, 1536 1390.8 C 1534.3 1388.8, 1533 1386.7, 1533 1386.2 C 1533 1385.7, 1538.3 1383.7, 1544.8 1381.7 C 1572.3 1373.1, 1592.6 1367.3, 1593.3 1367.7 C 1594.2 1368.3, 1594 1370.4, 1591 1393.5 C 1582.5 1457.6, 1575 1500.7, 1568.9 1519.4 C 1565.1 1531.1, 1558.2 1542.1, 1551.8 1546.7 C 1547.5 1549.8, 1535.9 1556, 1534.5 1556 C 1534.1 1556, 1526.3 1559.1, 1517.1 1562.9 C 1478.4 1579.1, 1389.3 1612, 1369.7 1617.5 C 1363.2 1619.3, 1356 1620.4, 1345 1621.1 C 1329.5 1622.2, 1324.9 1621.9, 1303.8 1618.9 C 1294.2 1617.5, 1292 1618.2, 1292 1622.6 C 1292 1626.2, 1301.2 1629.7, 1315.7 1631.6 C 1324.1 1632.7, 1323.9 1631.8, 1322.8 1661.3 C 1322.3 1675.5, 1322.1 1687.7, 1322.4 1688.5 C 1323.3 1691.1, 1329.9 1690.4, 1330.9 1687.7 C 1331.4 1686.5, 1332.2 1674.1, 1332.6 1660.3 C 1333.2 1643.1, 1333.9 1634.7, 1334.7 1633.9 C 1336 1632.6, 1355.5 1630.6, 1357.9 1631.5 C 1359.5 1632.1, 1358.9 1655.2, 1356.9 1676.3 C 1355.7 1688.5, 1356.2 1690, 1361.4 1690 C 1365.9 1690, 1367 1688.4, 1367 1682 C 1367 1679, 1367.9 1666.4, 1369 1654 C 1370.1 1641.7, 1371 1631.2, 1371 1630.8 C 1371 1629.5, 1375.1 1627.8, 1396.7 1620.4 C 1425.2 1610.6, 1470.4 1594.1, 1486.8 1587.4 C 1494.2 1584.4, 1500.3 1582, 1500.5 1582 C 1501.9 1582, 1503.3 1588.3, 1506 1607.1 C 1513.2 1656.6, 1517.7 1681.4, 1520.5 1685.7 C 1522.4 1688.6, 1525.6 1688.7, 1527.1 1685.9 C 1528.3 1683.5, 1527.8 1677, 1525.4 1663.5 C 1520.6 1636.7, 1512 1581.1, 1512.2 1578.7 C 1512.5 1576.1, 1513.3 1575.5, 1521.5 1572.3 C 1532.3 1568.1, 1535 1567.4, 1535 1568.8 C 1535 1569.9, 1538.9 1596.6, 1544.1 1631.5 C 1548.6 1662.2, 1553.1 1686.4, 1554.5 1687.8 C 1556.1 1689.6, 1559.7 1687.8, 1560.9 1684.7 C 1562.1 1681.7, 1555.7 1635, 1546.9 1582.8 C 1545.3 1573.1, 1544 1564.8, 1544 1564.2 C 1544 1563.7, 1546.9 1561.9, 1550.4 1560.1 C 1576.3 1547.4, 1585.1 1519.6, 1599 1408 C 1601.9 1385.2, 1604.6 1365.8, 1605.1 1364.9 C 1606 1363.1, 1618.6 1358.7, 1620.1 1359.6 C 1620.6 1359.9, 1621 1430.1, 1621 1522.6 C 1621 1632.7, 1621.3 1685.8, 1622 1687.1 C 1623.3 1689.4, 1628.2 1689.7, 1630 1687.4 C 1631.1 1686.2, 1631.3 1654.4, 1631.1 1521.6 C 1630.9 1386.4, 1631.1 1357.2, 1632.2 1356.3 C 1632.9 1355.7, 1637.1 1354.2, 1641.5 1353.1 C 1645.9 1352, 1652.3 1350.2, 1655.7 1349.1 C 1659.1 1348.1, 1662.1 1347.5, 1662.4 1347.8 C 1662.7 1348.1, 1663 1424.3, 1663 1517.2 C 1663 1631.7, 1663.3 1686.8, 1664 1688.1 C 1665.2 1690.3, 1670.2 1690.7, 1671.9 1688.7 C 1672.7 1687.7, 1673.1 1640.6, 1673.2 1516 L 1673.5 1344.6 1689 1339.9 C 1720.1 1330.4, 1722.2 1329.6, 1724.4 1326.7 C 1726.4 1324, 1726.5 1322.6, 1726.5 1303.1 C 1726.5 1279.6, 1726 1277.9, 1719.3 1276.1 C 1715.1 1275, 1630.8 1263, 1627.3 1263 C 1624.5 1263, 1622.8 1266.1, 1623.2 1270.3 C 1623.5 1273, 1623.9 1273.5, 1626.5 1273.8 C 1636.9 1274.7, 1695.3 1282.9, 1695.9 1283.6 C 1696.1 1283.8, 1696 1284.3, 1695.7 1284.7 C 1694.8 1285.5, 1651 1298.3, 1624.3 1305.6 C 1613.1 1308.6, 1602.8 1311.5, 1601.4 1312 C 1598.8 1313, 1584.9 1316.9, 1527.5 1332.7 C 1510.5 1337.3, 1488.8 1343.3, 1479.5 1346 C 1455.9 1352.6, 1416.2 1363.5, 1406 1366 C 1401.3 1367.2, 1384.5 1371.9, 1368.5 1376.5 C 1352.5 1381.1, 1327.2 1388.3, 1312.1 1392.6 L 1284.7 1400.3 1275.6 1399.7 C 1270.6 1399.3, 1257.3 1397.4, 1246 1395.5 C 1234.7 1393.5, 1197.6 1387.2, 1163.5 1381.5 C 1129.4 1375.7, 1084.4 1368.1, 1063.5 1364.5 C 1042.6 1360.9, 1014.7 1356.2, 1001.5 1354.1 C 988.3 1351.9, 965.4 1348, 950.5 1345.5 C 935.6 1342.9, 915.2 1339.5, 905 1337.9 C 894.8 1336.2, 872.3 1332.4, 855 1329.3 C 837.7 1326.3, 817.9 1322.9, 811 1321.9 C 804.1 1320.8, 790.6 1318.6, 781 1316.9 C 736.7 1309.2, 729.5 1308, 713.5 1305.6 C 704.1 1304.2, 681 1300.3, 662 1297 C 643 1293.7, 612.9 1288.6, 595 1285.6 C 577.1 1282.6, 553 1278.5, 541.5 1276.6 C 530 1274.6, 508.1 1271, 493 1268.6 C 454.4 1262.3, 383.1 1250.3, 377.9 1249.1 C 375.5 1248.5, 362.5 1246.3, 349 1244 C 319.3 1239, 315 1238.1, 315 1236.9 C 315 1236.4, 316 1235.8, 317.3 1235.5 C 320.2 1234.9, 355.7 1228.4, 363.5 1227.1 C 366.8 1226.5, 372.1 1225.6, 375.4 1225.1 C 382.9 1223.8, 386 1221.8, 386 1218.2 C 386 1211.3, 383.4 1211.5, 341 1220 M 285.2 1259.8 L 285.5 1273.5 298 1275.6 C 304.9 1276.8, 316.8 1278.9, 324.5 1280.3 C 332.2 1281.7, 347.9 1284.5, 359.5 1286.5 C 371.1 1288.5, 391.3 1292.1, 404.5 1294.5 C 417.7 1297, 444.7 1301.7, 464.5 1305 C 484.3 1308.3, 507.9 1312.4, 517 1314 C 526.1 1315.7, 544.3 1318.8, 557.5 1321 C 570.7 1323.3, 592.1 1327.1, 605 1329.5 C 626 1333.4, 658.8 1339.1, 745 1353.6 C 759.6 1356, 785.5 1360.5, 802.5 1363.6 C 819.5 1366.6, 844.5 1371.1, 858 1373.5 C 871.5 1375.9, 888.6 1378.8, 896 1380 C 903.4 1381.2, 922.3 1384.4, 938 1387.1 C 953.7 1389.8, 976.9 1393.9, 989.5 1396 C 1002.1 1398.2, 1037.9 1404.5, 1069 1410 C 1100.1 1415.5, 1138.5 1422.3, 1154.5 1425 C 1170.5 1427.8, 1200.2 1433, 1220.5 1436.6 C 1263.3 1444.2, 1274.6 1445.8, 1275.9 1444.5 C 1277.4 1443, 1275.7 1414.6, 1274.1 1412.7 C 1273.4 1411.8, 1270.7 1410.8, 1268.2 1410.5 C 1262.8 1409.8, 1212 1401.1, 1191.5 1397.4 C 1183.8 1396, 1162.9 1392.4, 1145 1389.4 C 1127.1 1386.4, 1108.9 1383.3, 1104.5 1382.5 C 1100.1 1381.7, 1083.5 1378.9, 1067.5 1376.4 C 1051.5 1373.9, 1027.6 1369.8, 1014.2 1367.4 C 985.2 1362.2, 913.7 1350.3, 885 1345.9 C 873.7 1344.2, 852.6 1340.7, 838 1338 C 823.4 1335.3, 805.9 1332.2, 799 1331 C 792.1 1329.9, 779.1 1327.6, 770 1326 C 747.8 1322.1, 726.1 1318.5, 705 1315.4 C 695.4 1314, 673.8 1310.4, 657 1307.4 C 640.2 1304.4, 621.1 1301.1, 614.5 1300 C 607.9 1298.9, 596.2 1296.9, 588.5 1295.5 C 564.1 1291.1, 539.2 1287.1, 517.5 1284 C 505.9 1282.3, 483 1278.5, 466.5 1275.5 C 436.6 1270.1, 420 1267.3, 364 1258 C 309.5 1248.9, 290.9 1246, 287.9 1246 L 284.9 1246 285.2 1259.8 M 1301.5 1251.5 C 1288.8 1253.4, 1261.8 1257.2, 1241.5 1260 C 1197.4 1266, 1197.8 1266, 1198.3 1267.3 C 1198.5 1267.9, 1201.3 1269.2, 1204.6 1270.3 C 1209.5 1271.9, 1295 1302.6, 1312.9 1309.1 C 1316 1310.2, 1318.7 1310.7, 1319.2 1310.2 C 1320.4 1309, 1331.2 1250.9, 1330.6 1249.3 C 1329.9 1247.6, 1328.2 1247.7, 1301.5 1251.5 M 1311.5 1268.1 C 1291.1 1271, 1260.2 1276.3, 1258.8 1277.1 C 1254.3 1279.5, 1255.3 1280, 1288.4 1291.6 C 1312.8 1300.2, 1316.5 1301, 1316.5 1297.6 C 1316.5 1295.4, 1310.9 1292.9, 1290.8 1285.9 C 1274.2 1280.1, 1274.2 1280.1, 1298.3 1276.5 C 1321.8 1273, 1325.5 1272, 1325.5 1269.5 C 1325.5 1267.1, 1321.1 1266.7, 1311.5 1268.1 M 1032.4 1274.5 C 1030.4 1279.3, 1030.6 1280.8, 1033.6 1285.2 C 1037.7 1291.1, 1048.2 1295.2, 1049.7 1291.5 C 1050.6 1289, 1037.6 1271, 1034.8 1271 C 1034.3 1271, 1033.2 1272.6, 1032.4 1274.5 M 1182.6 1271.8 C 1182.3 1272.1, 1182 1273.6, 1182 1275.1 C 1182 1278.8, 1181.6 1278.6, 1219.4 1293 L 1250.9 1305 1258.2 1304.5 C 1267.9 1303.8, 1275.1 1306.6, 1279.1 1312.5 C 1281.7 1316.3, 1282.8 1316.9, 1298.9 1322.9 C 1308.3 1326.4, 1316.6 1329, 1317.4 1328.7 C 1319.4 1327.9, 1320.6 1321.4, 1319 1319.6 C 1318.4 1318.8, 1316.4 1317.8, 1314.7 1317.4 C 1311.5 1316.8, 1267.6 1301.3, 1238 1290.5 C 1210.2 1280.3, 1183.2 1271.2, 1182.6 1271.8 M 837.2 1283.3 C 829.8 1294.7, 828.5 1297.7, 830.1 1299.6 C 833.6 1303.8, 840.9 1299.8, 847.5 1290.1 L 852.4 1282.9 847.9 1278.4 L 843.3 1273.8 837.2 1283.3 M 1700 1295 C 1685.4 1299.6, 1667 1304.9, 1614 1319.6 C 1592.8 1325.5, 1569.4 1332, 1562 1334 C 1554.6 1336.1, 1535.2 1341.5, 1519 1345.9 C 1482.7 1356, 1442.7 1367.1, 1413 1375.5 C 1400.6 1379, 1370.3 1387.5, 1345.5 1394.5 C 1320.8 1401.5, 1297.3 1408.1, 1293.5 1409.3 L 1286.5 1411.5 1286.2 1426.4 C 1285.9 1442.6, 1286.4 1444.4, 1290.9 1443.4 C 1298.5 1441.8, 1364.8 1423, 1400 1412.5 C 1410.2 1409.5, 1424.1 1405.4, 1431 1403.4 C 1474.7 1390.9, 1512.2 1380, 1530 1374.5 C 1541.3 1371, 1555.2 1366.8, 1561 1365.2 C 1566.8 1363.5, 1581.4 1359.3, 1593.5 1355.7 C 1621.1 1347.5, 1655 1337.8, 1665.5 1335 C 1669.9 1333.8, 1683 1329.8, 1694.5 1326.1 L 1715.5 1319.5 1716.1 1306.5 C 1716.7 1293.8, 1716.2 1290.9, 1713.6 1291.1 C 1713 1291.1, 1706.9 1292.9, 1700 1295 M 976.7 1308.1 C 968.4 1310.1, 967.7 1311.7, 970.7 1320.9 C 972.8 1327.4, 976.7 1331, 981.9 1331 C 983.9 1331, 986.1 1330.5, 986.8 1329.8 C 988.5 1328.1, 988.3 1321.5, 986.2 1314 C 984.1 1306.9, 983.5 1306.4, 976.7 1308.1 M 1257.5 1311.5 C 1250.5 1313, 1244 1315.5, 1244 1316.8 C 1244 1317.3, 1245.1 1318.7, 1246.4 1319.9 L 1248.8 1322.2 1260.2 1320.3 C 1270.1 1318.7, 1271.5 1318.2, 1271.8 1316.4 C 1272.5 1311.7, 1266.3 1309.6, 1257.5 1311.5 M 956.1 1416 C 941.6 1422.6, 932 1439, 932 1457.1 L 932 1465 926.3 1470.8 C 913.8 1483.5, 911.7 1500.1, 920.4 1517.3 L 923.9 1524.1 921.9 1527.3 C 911.5 1544.3, 915.3 1569.5, 930 1580.7 L 934.5 1584.2 934.5 1595.8 C 934.5 1607, 934.6 1607.8, 937.8 1614.1 C 941.6 1622, 947.8 1628, 954.6 1630.5 C 962.4 1633.4, 962.1 1632.2, 961.4 1661.1 C 960.7 1685.7, 960.8 1686.8, 962.6 1687.8 C 963.7 1688.3, 965.4 1688.4, 966.7 1687.9 C 970.2 1686.6, 970.8 1683, 971.9 1658.2 C 972.3 1647.6, 973 1638.7, 973.3 1638.4 C 973.6 1638.1, 976.6 1639.5, 979.9 1641.5 C 994.6 1650.6, 1007.7 1650.3, 1022.1 1640.6 C 1027.3 1637.1, 1030.4 1636.2, 1031.4 1637.8 C 1031.6 1638.2, 1029.6 1647.7, 1026.9 1658.9 C 1021.4 1681.5, 1020.9 1688.3, 1024.6 1688.8 C 1029.6 1689.5, 1032.7 1681.5, 1039.5 1651.4 C 1044.7 1628.5, 1044.8 1629.2, 1034.9 1627.1 C 1026.2 1625.2, 1023.8 1625.6, 1016.4 1630.5 C 1006.2 1637.2, 1002.1 1638.1, 992.9 1635.4 C 988.6 1634.1, 986.3 1632.5, 981.4 1627.4 L 975.3 1621.1 969.7 1621.7 C 952.9 1623.4, 940.6 1603.2, 947.4 1585 L 949.1 1580.5 945.4 1577.5 C 926 1562.1, 923.4 1550.4, 935 1530.6 C 937.2 1526.9, 939 1523.2, 939 1522.5 C 939 1521.8, 937.2 1519, 935 1516.4 C 929.3 1509.5, 927.6 1505.5, 927.6 1498.5 C 927.7 1490.1, 930.4 1484.5, 938.4 1476.8 L 944.9 1470.5 944 1466.5 C 939.2 1446.4, 949.8 1427.8, 968.5 1423.5 C 974.1 1422.2, 974.6 1420.4, 970.7 1416.3 C 968.1 1413.4, 962.2 1413.3, 956.1 1416 M 1527.5 1521.4 C 1512.2 1526.9, 1488.9 1536, 1468.5 1544.5 C 1459.7 1548.2, 1447.3 1552.9, 1441 1555 C 1434.7 1557.2, 1422.8 1561.4, 1414.5 1564.3 C 1354.3 1586.1, 1348.6 1589.2, 1349.2 1600.3 C 1349.6 1607.4, 1352.2 1607.4, 1356.9 1600.3 L 1360.3 1595.2 1373.9 1590.4 C 1381.4 1587.8, 1389.5 1584.7, 1392 1583.5 C 1396.5 1581.3, 1405 1578.1, 1445.7 1563.5 C 1457.3 1559.4, 1470.2 1554.6, 1474.2 1552.9 C 1478.2 1551.2, 1489.4 1546.8, 1499 1543 C 1526.8 1532.3, 1542.4 1525.8, 1544.3 1524.2 C 1545.4 1523.2, 1546 1521.6, 1545.8 1520.1 C 1545.3 1516.1, 1541.2 1516.4, 1527.5 1521.4"/>
</svg>
